{"glyphs":{"0":{"ha":413,"x_min":-14,"x_max":522,"o":"m 21 42 q -3 103 7 60 q -14 206 -14 147 q 82 556 -14 375 q 231 773 153 688 q 372 893 308 858 l 474 847 q 492 765 492 818 q 457 590 492 694 q 522 563 499 583 l 511 547 q 476 553 501 553 q 429 549 457 553 q 347 299 413 447 q 232 82 281 151 q 165 17 201 39 q 96 -8 128 -6 l 21 42 m 93 25 q 238 238 178 99 q 333 514 297 378 q 276 464 300 492 q 264 500 264 471 q 272 557 264 525 q 375 589 326 582 q 406 713 396 644 q 414 840 415 781 q 263 698 340 796 q 133 485 186 600 q 72 278 79 371 q 68 189 68 228 q 75 86 68 128 q 93 25 82 44 z "},"1":{"ha":288,"x_min":-56,"x_max":383,"o":"m -44 -117 q -56 -82 -56 -110 q -47 -24 -56 -57 q 88 13 26 10 l 54 51 q 111 326 65 144 q 182 548 139 438 q 268 740 225 658 q 214 690 247 711 q 146 658 181 669 l 83 696 q 194 758 132 708 q 314 872 257 808 l 383 836 q 279 547 368 781 q 132 11 199 333 q 203 -17 178 4 l 192 -33 q 154 -28 182 -28 q 68 -42 118 -28 q 8 -72 38 -50 q -44 -117 -22 -93 z "},"2":{"ha":371,"x_min":-43,"x_max":510,"o":"m -12 -119 q -25 -83 -25 -112 q -17 -26 -25 -58 q -10 -24 -14 -25 q -1 -19 -6 -22 l -42 17 q 26 187 -43 78 q 225 461 94 296 q 346 638 300 557 q 407 771 392 718 q 325 693 378 729 q 215 633 272 657 l 132 678 q 270 749 200 697 q 394 861 340 800 l 510 803 q 447 633 510 735 q 250 357 383 532 q 201 292 246 351 q 40 -6 82 132 q 132 10 90 10 q 192 1 167 10 q 233 -21 218 -8 l 222 -36 q 186 -31 213 -31 q 99 -44 150 -31 q 39 -74 68 -53 q -12 -119 10 -96 z "},"3":{"ha":513,"x_min":-14,"x_max":610,"o":"m 4 -139 q -8 -103 -8 -132 q 0 -46 -8 -76 l 44 -28 l -14 39 q 60 167 10 114 q 167 246 111 221 l 219 193 q 147 147 181 172 q 97 99 113 121 q 71 22 71 57 q 90 -15 71 -6 q 167 -10 133 -7 q 298 94 232 15 q 418 294 364 174 q 463 436 463 393 q 425 475 463 475 q 363 461 399 475 q 146 365 272 428 l 97 421 q 304 536 151 440 q 451 667 400 596 q 514 800 503 738 q 400 696 483 750 q 218 597 317 642 l 131 643 q 300 720 207 658 q 474 861 393 782 l 601 828 q 610 793 610 815 q 582 703 610 753 q 516 616 558 660 q 428 538 474 572 q 517 481 489 521 q 546 383 546 440 q 503 224 546 308 q 400 82 461 139 q 218 -21 329 13 q 250 -39 239 -29 l 239 -54 q 204 -49 229 -49 q 115 -64 165 -49 q 56 -94 85 -72 q 4 -139 26 -115 z "},"4":{"ha":478,"x_min":-14,"x_max":492,"o":"m 121 -119 q 110 -85 110 -112 q 118 -26 110 -58 q 178 -4 142 -15 l 174 -1 q 210 147 185 60 q 275 329 236 233 l 301 394 q 170 354 236 385 q 54 288 104 324 l -14 353 q 57 400 18 381 q 190 508 124 447 q 300 633 257 568 q 381 774 349 708 q 428 881 414 839 l 492 822 q 468 662 488 754 q 413 472 449 569 q 397 431 408 458 q 419 425 411 428 l 428 392 q 386 399 414 396 q 260 10 300 151 q 324 3 296 11 q 368 -19 351 -6 l 356 -36 q 321 -29 344 -29 q 232 -44 289 -29 q 172 -74 201 -53 q 121 -119 143 -96 m 319 440 q 378 614 361 553 q 235 442 299 500 q 319 440 268 443 z "},"5":{"ha":460,"x_min":-14,"x_max":599,"o":"m 35 -119 q 24 -85 24 -112 q 32 -26 24 -58 l 47 -19 l -7 22 q -14 78 -14 44 q 47 269 -14 172 l 158 276 q 89 161 119 224 q 53 43 58 99 q 75 -8 49 4 q 171 10 129 10 q 238 57 206 28 q 292 119 271 86 q 389 317 344 200 q 433 524 433 433 q 424 594 433 565 q 256 538 344 585 q 93 408 167 492 l 42 474 l 210 817 q 336 789 271 789 q 417 804 381 789 q 549 881 508 843 l 599 817 q 509 747 565 775 q 382 718 453 718 q 271 736 329 718 l 204 621 q 255 644 224 635 q 322 653 286 653 q 375 647 349 653 q 463 606 425 638 q 521 534 501 575 q 536 453 540 493 q 494 312 532 406 q 390 128 456 218 q 244 0 325 39 q 282 -19 268 -8 l 269 -36 q 235 -29 258 -29 q 146 -44 203 -29 q 86 -74 115 -53 q 35 -119 57 -96 z "},"6":{"ha":463,"x_min":-14,"x_max":629,"o":"m 21 -139 q 8 -104 8 -131 q 18 -46 8 -79 l 61 -28 l -6 28 q -14 140 -14 74 q 68 504 -14 338 q 224 759 150 675 q 361 861 299 843 q 444 833 411 857 q 476 764 478 810 l 560 832 l 629 779 q 515 682 569 735 q 435 585 461 629 l 397 611 q 419 749 419 690 q 401 817 419 797 q 305 726 363 796 q 182 536 247 656 q 117 374 142 460 q 278 474 201 465 q 297 475 285 475 q 366 454 339 475 q 403 404 393 433 q 369 238 396 325 q 297 78 343 150 q 210 -14 261 21 q 267 -39 247 -22 l 256 -56 q 221 -49 244 -49 q 132 -64 189 -49 q 72 -94 101 -72 q 21 -139 43 -115 m 110 -6 q 183 38 140 -15 q 272 206 226 92 q 317 339 304 283 q 329 422 331 394 q 240 392 282 413 q 181 342 199 371 q 157 271 157 304 q 163 243 157 254 l 101 311 q 82 132 82 219 q 90 37 82 75 q 110 -6 99 -1 z "},"7":{"ha":436,"x_min":-14,"x_max":518,"o":"m -3 -139 q -14 -104 -14 -132 q -6 -46 -14 -78 q 67 -19 32 -28 l 49 -10 q 152 130 99 49 q 244 297 206 211 q 294 417 269 353 q 156 349 219 396 q 139 383 139 356 q 151 442 139 408 q 314 475 236 468 q 393 786 369 640 q 309 713 363 749 q 200 653 256 678 l 115 711 q 253 772 190 726 q 357 872 317 817 l 488 808 q 465 669 483 756 q 410 476 446 583 q 518 447 479 469 l 501 432 q 449 438 482 438 q 396 435 415 438 q 382 399 385 404 q 270 167 335 271 q 147 -10 206 63 q 206 -19 181 -10 q 244 -39 231 -28 l 233 -56 q 197 -49 222 -49 q 110 -64 164 -49 q 49 -94 79 -72 q -3 -139 19 -115 z "},"8":{"ha":444,"x_min":-14,"x_max":513,"o":"m 67 -119 q 54 -83 54 -112 q 63 -26 54 -57 l 78 -19 l 22 11 q -3 72 7 33 q -14 157 -14 110 q -10 218 -14 185 q 39 346 0 286 q 126 447 78 406 l 194 403 q 136 353 164 393 q 91 258 108 314 q 74 147 74 203 q 89 51 74 92 q 124 -4 104 11 q 197 10 163 7 q 253 128 253 47 q 226 342 253 181 q 201 524 210 458 q 193 646 193 589 q 215 778 193 724 q 264 865 236 833 q 292 893 292 897 q 449 827 385 879 q 513 686 513 775 q 467 515 513 592 q 358 390 422 438 l 328 464 q 378 525 353 482 q 418 635 403 568 q 428 711 428 675 q 417 785 428 753 q 390 838 406 818 q 319 774 350 813 q 282 690 288 735 q 279 639 279 660 q 288 510 279 579 q 313 349 297 440 l 317 319 q 336 150 336 211 q 313 35 336 78 q 278 0 299 11 q 313 -19 300 -10 l 301 -36 q 267 -29 290 -29 q 178 -44 235 -29 q 118 -74 147 -53 q 67 -119 89 -96 z "},"9":{"ha":435,"x_min":-14,"x_max":669,"o":"m 25 -119 q 14 -85 14 -112 q 22 -26 14 -58 l 47 -15 l 8 3 q -14 69 -14 29 q 8 160 -14 113 l 103 186 q 63 78 63 128 q 96 0 63 33 q 163 10 131 10 q 224 125 190 43 q 304 342 257 207 q 196 238 267 296 l 88 293 q 79 360 79 313 q 96 501 79 421 q 147 657 113 581 q 231 795 182 733 q 328 893 281 857 l 436 851 q 458 747 458 817 q 534 853 496 818 q 601 892 572 888 l 669 849 q 615 830 649 854 q 549 756 582 806 q 492 640 515 707 q 451 521 476 600 q 347 219 389 336 q 278 56 304 101 q 231 1 264 29 q 272 -19 257 -7 l 260 -36 q 225 -29 249 -29 q 136 -44 193 -29 q 76 -74 106 -53 q 25 -119 47 -96 m 161 299 q 285 452 226 367 q 372 617 344 538 q 385 751 385 690 q 372 832 385 808 q 273 718 321 785 q 200 578 225 651 q 160 340 160 465 l 161 299 z "}," ":{"ha":243,"x_min":0,"x_max":0,"o":""},"A":{"ha":565,"x_min":-14,"x_max":675,"o":"m -3 -6 q 21 122 21 57 q -14 243 21 196 l 39 290 l 242 290 l 285 369 q 586 882 379 542 l 649 851 l 675 799 l 531 335 q 517 290 524 315 l 575 290 l 556 243 l 506 243 q 481 43 481 138 q 483 -6 481 13 l 390 50 q 433 243 408 150 l 300 243 q 157 15 224 94 q 46 -79 90 -64 l -3 -6 m 446 290 q 520 542 479 413 q 590 756 561 671 q 325 290 453 532 l 446 290 m 75 40 q 142 118 110 71 q 217 243 174 165 l 58 243 q 83 107 83 165 q 75 40 83 74 z "},"B":{"ha":606,"x_min":-14,"x_max":654,"o":"m 186 -69 q 91 -47 146 -69 q -14 7 36 -25 q 32 0 3 0 q 146 28 85 0 l 335 728 q 164 646 261 679 l 110 710 q 256 774 188 728 q 372 865 324 821 l 382 901 l 408 883 q 497 894 446 894 q 582 872 542 894 q 639 813 622 850 q 654 746 654 781 q 633 674 654 707 q 587 628 622 653 q 508 579 551 603 q 533 582 525 582 q 567 578 550 582 q 607 519 576 575 q 625 450 625 485 q 619 414 625 429 q 513 242 604 361 q 324 27 422 124 q 186 -69 225 -69 m 357 558 l 504 657 q 587 733 563 696 q 607 799 611 771 q 525 826 576 826 q 421 794 471 826 l 357 558 m 225 75 q 319 151 267 103 q 493 347 425 250 q 588 515 561 443 q 508 535 558 535 q 450 528 478 535 q 384 497 406 518 q 361 453 363 476 q 344 514 347 468 l 225 75 z "},"C":{"ha":407,"x_min":-14,"x_max":663,"o":"m -10 11 q -14 67 -14 32 q 13 258 -14 143 q 111 521 40 372 q 281 778 189 683 q 450 899 372 872 l 524 833 l 524 829 q 519 800 524 815 q 621 868 574 850 l 663 819 q 527 707 582 781 q 447 554 472 633 l 396 628 l 458 826 q 315 689 393 792 q 164 418 236 586 q 68 22 63 179 q 107 11 83 11 q 151 22 128 11 q 303 142 203 44 l 317 142 q 262 53 293 96 q 200 -15 231 10 q 138 -53 169 -42 q 82 -62 107 -64 l -10 11 z "},"D":{"ha":532,"x_min":-14,"x_max":617,"o":"m 110 -74 q 35 -51 67 -74 q -14 3 3 -29 q 22 -19 0 -10 q 71 -29 43 -29 l 58 -15 l 261 729 q 82 642 185 676 l 28 706 q 170 769 99 722 q 299 869 242 815 l 307 897 l 328 883 q 399 892 357 892 q 452 888 428 892 q 486 876 476 883 q 614 736 511 857 q 617 685 617 717 q 594 511 617 613 q 510 283 571 410 q 372 73 447 153 q 229 -40 297 -7 q 110 -74 161 -74 m 125 -22 q 248 63 182 -6 q 401 288 314 132 q 506 551 475 418 q 535 790 538 685 q 449 832 499 832 q 347 797 401 832 l 125 -22 z "},"E":{"ha":419,"x_min":14,"x_max":615,"o":"m 110 -62 l 19 8 q 14 79 14 38 q 61 311 14 193 q 147 449 97 400 q 240 515 197 497 q 185 711 185 624 q 188 754 185 726 q 237 863 197 829 q 318 897 276 897 l 403 896 l 478 831 l 478 829 q 472 797 478 817 q 574 865 526 847 l 615 817 q 480 704 535 778 q 400 551 425 631 l 349 625 l 410 844 q 331 824 367 843 q 279 768 294 806 q 272 725 272 753 q 294 612 272 678 q 349 468 315 546 q 357 447 353 457 q 365 426 361 436 q 388 345 382 386 q 392 272 394 304 l 315 254 q 308 352 318 299 q 272 453 297 406 l 272 454 q 205 405 240 440 q 140 306 169 369 q 98 174 111 246 q 88 39 85 101 q 121 11 97 22 q 179 0 144 0 q 242 8 207 0 q 353 71 301 24 q 439 176 406 118 l 453 158 q 397 56 431 104 q 325 -15 364 7 q 222 -56 272 -46 q 114 -65 172 -65 l 110 -62 z "},"F":{"ha":403,"x_min":58,"x_max":718,"o":"m 299 431 l 153 -87 l 101 -29 l 104 -22 q 108 121 108 32 q 58 431 108 363 l 100 476 l 239 476 l 347 876 l 506 876 l 579 811 l 579 807 q 575 778 579 793 q 676 846 629 828 l 718 797 q 583 685 638 758 q 503 532 528 611 l 451 606 l 507 810 q 456 836 481 836 q 418 818 435 836 q 399 786 401 800 l 311 476 l 469 476 l 451 431 l 299 431 m 226 431 l 122 431 q 161 190 151 307 l 226 431 z "},"G":{"ha":458,"x_min":35,"x_max":653,"o":"m 40 -6 q 35 94 35 33 q 128 561 35 325 q 257 798 190 719 q 378 882 324 876 l 514 817 l 514 813 q 508 783 514 800 q 610 851 563 833 l 653 803 q 517 690 572 764 q 436 538 461 617 l 385 611 l 433 790 l 406 806 q 371 798 394 813 q 336 768 347 783 q 235 602 283 697 q 161 400 188 507 q 128 119 128 265 q 135 -6 128 50 q 226 53 179 6 q 306 188 272 101 q 350 385 350 301 q 347 421 350 401 l 275 421 l 294 468 l 543 468 l 525 421 l 388 421 l 422 397 q 392 224 415 314 q 328 68 368 135 q 240 -32 290 6 q 144 -82 190 -69 l 40 -6 z "},"H":{"ha":575,"x_min":101,"x_max":696,"o":"m 342 506 l 196 -12 l 144 46 l 147 53 q 151 196 151 107 q 101 506 151 438 l 143 551 l 282 551 l 390 951 l 442 861 l 356 551 l 536 551 l 644 951 l 696 861 l 610 551 l 647 551 l 628 506 l 596 506 l 451 -12 l 400 46 l 524 506 l 342 506 m 269 506 l 165 506 q 204 265 194 382 l 269 506 z "},"I":{"ha":278,"x_min":-14,"x_max":508,"o":"m -14 -22 q 99 14 39 7 l 78 49 l 304 883 q 232 913 258 897 l 258 978 q 334 938 292 956 q 417 915 376 919 q 469 913 439 913 q 508 918 503 913 l 496 886 q 394 874 450 874 q 354 875 368 874 l 369 846 l 138 17 q 250 4 199 19 l 263 -28 q 224 -22 257 -22 q 171 -25 193 -22 q 89 -47 131 -29 q 14 -86 47 -64 l -14 -22 z "},"J":{"ha":336,"x_min":-14,"x_max":446,"o":"m 67 -31 q 54 -29 57 -31 l 32 -29 l -14 47 l 71 382 l 122 293 l 53 44 q 97 -1 46 -1 q 124 1 110 -1 q 154 44 143 21 l 367 835 q 264 761 328 796 q 135 704 200 726 l 81 769 q 223 832 151 786 q 351 932 294 878 l 403 885 l 446 842 l 233 83 q 179 4 218 32 q 126 -22 154 -14 q 72 -29 97 -29 q 72 -30 72 -29 q 71 -31 71 -31 l 67 -31 z "},"K":{"ha":464,"x_min":-14,"x_max":633,"o":"m 351 288 q 390 109 360 181 q 458 7 421 38 l 382 7 q 335 65 358 18 q 297 193 311 111 q 281 390 281 286 q 286 499 281 451 q 235 465 250 474 l 138 119 l 106 7 l 60 82 l 272 871 q 169 798 233 832 q 40 740 106 764 l -14 806 q 128 868 57 822 q 257 968 200 914 l 290 938 l 307 921 l 351 879 l 265 571 q 404 688 329 619 q 525 822 479 756 q 608 968 608 942 l 633 876 q 500 699 574 788 q 360 556 426 611 q 346 404 346 494 q 351 288 346 347 z "},"L":{"ha":338,"x_min":-14,"x_max":351,"o":"m 47 11 q 92 31 65 21 l 60 82 l 272 871 q 169 798 233 832 q 40 740 106 764 l -14 806 q 128 868 57 822 q 257 969 200 914 l 290 938 l 307 921 l 351 879 l 138 119 l 115 38 q 208 50 165 50 q 311 36 265 50 l 325 6 q 289 10 319 10 q 233 7 258 10 q 151 -15 193 3 q 75 -54 108 -32 l 47 11 z "},"M":{"ha":710,"x_min":-14,"x_max":832,"o":"m 503 836 l 106 -11 l 60 64 l 272 853 q 169 780 233 814 q 40 722 106 746 l -14 788 q 128 850 57 804 q 257 950 200 896 l 290 919 l 351 861 l 194 301 l 493 950 l 525 919 l 526 919 l 588 861 l 426 290 l 738 950 l 771 919 l 779 911 l 794 897 l 832 861 l 619 101 l 586 -11 l 540 64 l 749 835 l 342 -11 l 296 64 l 503 836 z "},"N":{"ha":478,"x_min":-14,"x_max":588,"o":"m 503 836 l 106 -11 l 60 64 l 272 853 q 169 780 233 814 q 40 722 106 746 l -14 788 q 128 850 57 804 q 257 950 200 896 l 290 919 l 351 861 l 194 301 l 493 950 l 525 919 l 550 897 l 588 861 l 374 101 l 342 -11 l 296 64 l 503 836 z "},"O":{"ha":496,"x_min":46,"x_max":558,"o":"m 71 76 q 53 144 60 101 q 46 240 46 188 q 111 581 46 392 q 254 840 169 744 q 422 964 339 936 l 513 933 q 545 872 532 910 q 558 789 558 835 q 513 619 558 707 q 424 489 474 544 l 489 503 q 492 457 492 485 q 473 309 492 390 q 406 150 454 228 q 323 50 361 82 q 253 10 285 18 q 176 3 222 3 l 71 76 m 143 76 q 182 68 160 68 q 253 90 215 68 q 331 169 292 113 q 387 294 371 228 q 403 422 403 361 q 401 467 403 456 q 336 416 368 435 q 279 392 304 397 l 226 469 q 313 513 265 476 q 407 619 361 550 q 467 828 467 711 q 457 917 467 883 q 335 811 400 886 q 218 628 271 736 q 144 399 165 521 q 128 215 128 303 q 143 76 128 138 z "},"P":{"ha":439,"x_min":-14,"x_max":514,"o":"m 60 64 l 268 839 q 40 722 181 782 l -14 788 q 133 846 57 804 q 272 936 210 888 q 357 958 314 958 q 411 944 389 958 q 468 897 442 926 q 513 838 494 868 l 514 807 q 457 483 514 665 q 396 310 424 374 q 351 228 368 246 q 285 181 322 199 q 213 169 249 164 q 169 213 183 181 l 138 101 l 106 -11 l 60 64 m 240 204 q 313 334 274 243 q 386 563 351 425 q 442 856 442 786 q 424 913 442 897 q 411 917 419 917 q 329 882 386 917 l 351 861 l 181 253 q 240 204 215 203 z "},"Q":{"ha":538,"x_min":33,"x_max":611,"o":"m 58 76 q 40 143 47 101 q 33 238 33 185 q 100 581 33 392 q 242 840 157 744 q 410 964 326 936 l 500 933 q 533 872 519 910 q 546 789 546 835 q 500 619 546 707 q 411 489 465 549 l 476 503 q 479 457 479 485 q 460 309 479 390 q 393 150 442 228 l 381 131 q 458 75 415 96 q 540 54 500 54 q 611 76 579 54 l 540 3 q 511 0 528 0 q 427 17 472 0 q 338 76 382 33 q 256 15 293 28 q 165 3 219 3 l 58 76 m 132 76 q 171 69 149 69 q 290 132 233 69 q 239 240 256 183 q 222 346 222 296 q 238 435 222 400 l 214 469 q 301 513 253 476 q 394 619 349 550 q 454 831 454 710 q 446 917 454 888 q 323 811 388 886 q 206 628 258 736 q 133 399 154 521 q 115 214 115 292 q 132 76 115 131 m 332 189 q 390 421 390 289 q 389 467 390 456 q 296 401 342 422 q 289 338 289 360 q 306 242 289 288 q 332 189 314 215 z "},"R":{"ha":439,"x_min":-14,"x_max":514,"o":"m 60 64 l 268 839 q 40 722 181 782 l -14 788 q 133 846 57 804 q 272 936 210 888 q 357 958 314 958 q 411 944 389 958 q 468 897 442 926 q 513 838 494 868 l 514 807 q 457 483 514 665 q 396 310 424 374 q 351 228 368 246 q 267 174 313 189 q 299 108 275 132 q 351 76 324 83 l 297 3 q 238 65 256 13 q 217 168 221 117 q 213 169 214 168 q 169 213 183 181 l 138 101 l 106 -11 l 60 64 m 240 204 q 313 334 274 243 q 386 563 351 425 q 442 856 442 786 q 424 913 442 897 q 411 917 419 917 q 329 882 386 917 l 351 861 l 181 253 q 240 204 215 203 z "},"S":{"ha":479,"x_min":26,"x_max":654,"o":"m 654 885 q 519 772 574 846 q 439 619 464 699 l 388 693 l 436 872 l 400 892 l 386 893 q 336 876 361 893 q 297 815 311 860 q 292 769 292 799 q 310 655 292 721 q 363 488 328 589 q 421 289 411 349 q 425 231 425 260 q 414 138 425 182 q 388 63 403 93 q 318 20 364 38 q 210 3 272 3 q 231 7 218 3 l 210 3 q 112 47 158 4 q 42 179 65 89 q 26 288 26 235 q 40 385 26 342 q 75 454 54 428 l 160 483 q 122 398 138 451 q 107 278 107 344 q 110 228 107 264 q 144 118 117 160 q 206 59 172 76 q 268 42 239 42 q 283 43 279 42 q 335 213 335 97 q 318 338 335 279 q 267 488 301 396 q 215 638 232 578 q 197 765 197 697 q 251 911 197 863 q 381 964 304 960 l 515 899 l 515 893 q 511 864 515 881 q 613 933 565 915 l 654 885 m 210 3 z "},"T":{"ha":181,"x_min":-1,"x_max":593,"o":"m 289 879 l 290 876 l 44 3 l -1 79 l 215 879 l 49 879 l 89 943 l 232 943 l 239 967 l 251 943 l 593 943 l 563 879 l 289 879 z "},"U":{"ha":399,"x_min":-14,"x_max":533,"o":"m -14 60 l 232 965 l 283 875 l 58 76 q 69 74 63 74 q 163 150 106 74 q 336 425 232 242 l 482 965 l 533 875 l 308 76 q 326 48 314 58 q 356 40 339 38 q 400 76 388 47 l 408 76 q 372 23 401 44 q 288 1 342 1 l 236 60 l 297 283 q 165 83 235 165 q 38 1 94 1 l -14 60 z "},"V":{"ha":333,"x_min":58,"x_max":553,"o":"m 476 943 l 553 889 l 163 1 l 119 3 l 58 63 l 146 964 l 218 888 l 128 76 l 476 943 z "},"W":{"ha":596,"x_min":46,"x_max":778,"o":"m 374 82 l 699 954 l 778 881 l 407 -7 l 358 -7 l 282 72 l 331 358 l 328 354 l 300 289 q 198 65 233 136 q 144 -7 163 -7 l 122 -7 l 46 72 l 226 954 l 318 881 l 139 69 q 149 72 140 69 q 350 471 231 211 l 431 954 l 510 881 l 374 82 z "},"X":{"ha":550,"x_min":-14,"x_max":733,"o":"m -14 31 q 88 121 21 36 q 278 382 154 206 q 168 715 183 633 q 160 808 160 760 q 168 886 160 857 l 263 918 q 246 836 246 893 q 263 719 246 785 q 344 476 281 649 q 486 667 429 599 q 685 886 638 850 l 733 818 q 603 663 703 793 q 385 364 504 532 q 513 31 446 201 l 431 -46 q 379 118 424 7 q 346 204 356 176 l 319 271 q 271 200 288 226 q 139 35 199 96 q 42 -46 79 -26 l -14 31 z "},"Y":{"ha":465,"x_min":-14,"x_max":588,"o":"m 156 -18 q 83 -8 119 -18 q 24 28 47 1 q -14 115 -14 72 q -10 140 -14 129 l 90 104 q 100 51 89 76 q 136 13 111 26 q 196 -4 168 -4 q 238 6 215 -4 q 279 54 261 24 q 307 117 297 85 l 419 525 q 256 232 304 308 q 201 170 225 183 q 144 157 178 157 l 82 208 l 228 771 q 81 704 160 732 l 28 769 q 170 832 99 786 q 299 932 242 878 l 349 885 l 164 225 q 281 347 215 239 q 465 690 350 465 l 536 946 l 588 857 l 358 58 q 347 36 358 50 q 307 7 335 22 q 242 -14 276 -10 q 183 -17 207 -18 l 156 -18 z "},"Z":{"ha":475,"x_min":-14,"x_max":572,"o":"m -14 61 q 38 210 -8 128 q 174 368 83 293 q 328 478 264 443 q 426 515 393 514 l 446 478 q 457 536 457 514 q 444 579 457 563 q 319 558 393 583 q 164 475 246 533 l 118 526 q 247 621 154 546 q 422 772 339 696 q 517 867 506 847 q 524 890 524 883 q 515 913 524 901 q 406 867 456 900 q 224 738 331 815 l 158 793 q 211 811 176 792 q 314 876 246 831 l 349 900 q 433 936 388 925 q 517 946 478 947 l 553 915 q 572 856 572 892 q 524 754 572 804 q 371 626 482 715 q 401 629 390 629 q 450 617 432 629 q 498 550 482 594 q 510 465 514 506 q 447 319 504 425 q 287 113 389 213 q 49 -18 185 13 l -14 61 m 57 50 q 170 116 106 67 q 300 244 235 165 q 439 458 401 368 q 306 384 381 433 q 171 256 232 335 q 86 131 114 183 q 57 50 58 78 z "},"a":{"ha":393,"x_min":-14,"x_max":504,"o":"m -11 56 q -14 106 -14 74 q 50 414 -14 246 q 160 588 92 524 q 297 672 228 653 q 357 628 349 644 q 368 567 365 613 q 440 672 408 631 l 504 621 q 385 434 440 536 q 308 238 331 332 q 272 56 281 125 q 328 93 296 61 q 394 185 360 125 l 400 185 q 346 75 374 124 q 305 17 321 33 q 268 1 289 1 l 207 56 q 229 256 207 154 q 47 1 96 15 l -11 56 m 56 42 q 132 149 89 69 q 263 371 169 215 q 282 415 269 392 q 310 569 310 503 q 303 621 310 601 q 206 510 257 582 q 118 342 156 438 q 66 169 81 247 q 56 42 51 90 z "},"b":{"ha":374,"x_min":-14,"x_max":424,"o":"m 63 61 l 47 1 l -14 56 l 146 708 l 213 957 l 281 899 l 135 338 q 247 558 206 494 q 304 631 274 601 q 360 672 335 660 l 424 621 q 401 456 422 550 q 340 267 381 361 q 267 138 311 199 q 181 41 224 78 q 111 1 138 4 l 63 61 m 93 56 q 179 144 131 79 q 275 314 228 208 q 344 499 324 419 q 360 621 364 578 q 290 544 329 596 q 213 419 250 493 q 83 143 136 269 l 68 85 l 93 56 z "},"c":{"ha":253,"x_min":-14,"x_max":344,"o":"m 63 1 l -10 56 q -14 118 -14 85 q 10 297 -14 200 q 79 489 33 393 q 154 613 115 567 q 224 672 193 658 l 285 672 l 301 658 l 340 628 q 326 535 344 581 q 264 463 308 489 q 293 588 293 533 q 278 643 293 624 l 265 635 q 178 533 224 606 q 99 349 133 461 q 54 69 51 192 q 66 56 54 64 q 107 51 78 47 q 122 53 115 51 q 133 56 128 54 q 189 93 157 61 q 256 185 221 125 l 260 185 q 206 75 235 124 q 165 17 181 33 q 129 1 149 1 l 63 1 z "},"d":{"ha":360,"x_min":-14,"x_max":583,"o":"m -11 56 q -14 106 -14 74 q 50 414 -14 246 q 160 588 92 524 q 297 672 228 653 q 353 633 340 650 l 368 672 q 449 835 404 761 q 535 957 493 910 l 583 897 q 454 668 519 814 q 332 336 389 522 q 264 57 279 165 q 314 93 283 65 q 382 185 344 121 l 386 185 q 332 75 361 124 q 293 19 308 35 q 258 1 278 3 l 256 1 l 254 6 l 190 56 q 203 149 186 72 q 231 258 210 178 q 131 92 185 172 q 47 1 78 11 l -11 56 m 56 42 q 132 149 89 69 q 217 293 157 196 q 263 372 233 324 q 301 489 283 438 q 310 569 310 539 q 303 621 310 596 q 206 510 257 582 q 118 342 156 438 q 66 169 81 247 q 56 42 51 90 z "},"e":{"ha":297,"x_min":-14,"x_max":358,"o":"m 69 1 l -10 56 q -14 117 -14 78 q 28 374 -14 232 q 106 553 58 476 q 200 672 153 631 l 315 672 l 347 646 q 358 578 358 617 q 315 411 358 500 q 233 299 283 344 q 129 233 182 254 l 94 296 q 61 69 61 161 q 92 54 72 60 q 135 51 111 49 q 149 53 143 51 q 161 56 156 54 q 217 93 185 61 q 283 185 249 125 l 289 185 q 233 75 263 124 q 194 18 210 35 q 157 1 178 1 l 69 1 m 99 311 q 179 343 139 311 q 250 453 219 375 q 279 581 279 526 q 274 627 279 614 q 268 640 268 640 q 176 517 221 597 q 100 317 132 438 l 99 311 z "},"f":{"ha":288,"x_min":-74,"x_max":386,"o":"m -74 -124 l 208 957 l 276 851 l 161 413 l 192 428 l 386 428 l 378 415 l 204 375 l 257 331 q 242 176 260 271 q 168 -42 225 82 q 81 -174 126 -135 q -1 -207 35 -212 l -74 -124 m 15 -142 q 104 -17 58 -122 q 178 215 150 88 q 188 293 188 258 q 156 388 188 358 l 15 -142 z "},"g":{"ha":357,"x_min":-86,"x_max":442,"o":"m 32 -207 q -49 -169 -19 -200 q -86 -99 -79 -139 l -11 -58 q 21 -139 -8 -101 q 82 -164 43 -167 q 113 -124 99 -144 l 238 265 q 130 94 188 178 q 39 1 72 10 l -18 56 q -21 108 -21 75 q 43 414 -21 247 q 153 588 85 524 q 290 672 221 653 q 350 628 340 644 l 353 621 l 442 672 l 199 -133 l 33 -206 l 32 -207 m 47 42 q 125 149 82 69 q 256 356 154 201 q 269 376 264 368 q 278 390 275 385 l 296 447 q 304 544 304 497 q 294 621 304 590 q 199 510 249 582 q 111 342 149 438 q 58 169 74 247 q 47 42 43 90 z "},"h":{"ha":407,"x_min":-26,"x_max":457,"o":"m -26 56 l 210 957 l 279 851 l 117 240 q 224 466 157 351 q 358 672 290 581 l 429 672 l 457 621 l 296 54 l 304 56 q 360 93 328 61 q 426 185 392 125 l 432 185 q 378 75 407 124 q 337 17 353 33 q 301 1 321 1 l 281 1 l 214 56 l 358 611 q 250 444 315 560 q 135 215 186 333 q 54 1 85 97 l -26 56 z "},"i":{"ha":175,"x_min":-14,"x_max":357,"o":"m 357 953 l 288 782 l 199 782 l 253 911 l 357 953 m 53 1 l 53 6 l -14 56 q 33 283 -7 114 q 92 476 54 371 q 171 672 131 581 l 267 672 q 241 615 267 669 q 158 396 215 560 q 68 54 103 235 l 76 56 q 132 93 100 61 q 199 185 164 125 l 204 185 q 150 75 178 124 q 109 17 125 33 q 72 1 93 1 l 53 1 z "},"j":{"ha":140,"x_min":-304,"x_max":325,"o":"m 325 942 l 254 772 l 167 772 l 221 901 l 325 942 m -185 -207 q -267 -169 -237 -200 q -304 -99 -297 -139 l -229 -58 q -197 -139 -225 -101 q -135 -164 -175 -167 q -106 -124 -119 -144 l 135 621 l 225 672 l -19 -133 l -185 -206 l -185 -207 z "},"k":{"ha":464,"x_min":-26,"x_max":536,"o":"m -26 56 l 210 957 l 279 851 l 119 247 q 268 513 188 388 q 385 672 364 664 l 469 672 l 533 621 q 536 594 536 611 q 451 404 536 514 q 342 297 397 335 q 243 250 286 258 l 329 51 l 339 51 q 352 53 346 51 q 364 56 358 54 q 419 93 388 61 q 486 185 451 125 l 492 185 q 438 75 467 124 q 397 17 413 33 q 361 1 381 1 l 271 1 l 172 210 l 181 281 q 54 1 107 135 l -26 56 m 199 314 q 408 501 310 306 q 442 613 442 567 q 433 653 442 633 q 279 454 369 600 q 199 314 229 374 z "},"l":{"ha":168,"x_min":-37,"x_max":267,"o":"m 43 1 l -37 56 l 197 957 l 267 851 l 56 54 l 65 56 q 122 93 89 61 q 189 185 154 125 l 193 185 q 139 75 168 124 q 98 17 114 33 q 63 1 82 1 l 43 1 z "},"m":{"ha":615,"x_min":-26,"x_max":664,"o":"m 504 56 q 621 183 563 82 l 626 183 q 572 72 600 121 q 532 16 549 32 q 494 0 515 0 l 489 0 l 421 54 l 554 565 l 265 0 l 197 54 l 332 567 l 42 0 l -26 54 l 135 671 l 217 619 l 75 118 l 358 671 l 440 619 l 299 118 l 582 671 l 664 619 l 504 56 z "},"n":{"ha":392,"x_min":-26,"x_max":440,"o":"m 332 567 l 42 0 l -26 54 l 135 671 l 217 619 l 75 118 l 358 671 l 440 619 l 281 56 q 397 183 338 79 l 403 183 q 349 72 376 121 q 308 16 325 32 q 271 0 292 0 l 265 0 l 197 54 l 332 567 z "},"o":{"ha":388,"x_min":-14,"x_max":400,"o":"m 7 54 q -8 104 -1 71 q -14 181 -14 138 q 33 426 -14 304 q 107 574 65 511 q 186 671 149 638 l 315 671 l 365 619 q 332 490 365 560 l 392 499 q 400 429 400 471 q 344 211 400 326 q 257 85 306 132 q 165 19 208 38 q 90 0 121 0 l 7 54 m 74 54 q 100 47 85 47 q 171 81 131 47 q 257 204 211 115 q 324 421 324 332 q 318 465 324 443 q 257 382 290 418 l 210 382 q 286 572 286 481 q 271 644 286 615 q 196 567 238 626 q 122 423 154 508 q 76 246 89 338 q 68 125 68 174 q 74 54 68 90 z "},"p":{"ha":344,"x_min":-74,"x_max":397,"o":"m 69 71 l -7 -208 l -74 -153 l 138 671 l 219 619 l 153 375 q 211 508 178 436 q 277 620 244 579 q 335 672 310 661 l 397 619 q 349 351 396 513 q 250 103 301 190 q 181 25 218 50 q 113 0 144 0 l 69 71 m 125 67 q 218 225 153 88 q 279 404 253 296 q 321 619 306 513 q 218 458 276 574 q 115 239 160 343 l 74 89 l 125 67 z "},"q":{"ha":344,"x_min":-99,"x_max":431,"o":"m -78 -200 q -43 -185 -71 -192 q -81 -146 -67 -169 q -99 -100 -94 -122 l -24 -60 q 8 -140 -21 -104 q 71 -167 29 -167 q 100 -125 86 -147 l 225 264 q 117 92 175 176 q 28 0 60 8 l -31 54 q -33 104 -33 72 q 31 413 -33 244 q 140 587 72 522 q 278 671 208 651 q 338 626 329 643 q 339 623 339 625 q 340 619 339 621 l 431 671 l 186 -135 l 89 -178 q 165 -192 132 -181 q 218 -218 199 -204 l 196 -233 q 104 -215 167 -215 q 32 -226 68 -215 q -33 -254 -4 -237 l -78 -200 m 36 40 q 113 147 69 67 q 243 354 142 200 q 257 375 251 367 q 265 389 263 383 l 283 444 q 293 547 293 506 q 283 619 293 590 q 187 508 238 581 q 99 340 136 436 q 47 167 61 244 q 36 40 32 89 z "},"r":{"ha":394,"x_min":60,"x_max":444,"o":"m 293 0 l 213 54 q 277 252 233 117 q 340 450 321 388 l 243 450 l 67 246 l 118 344 l 172 450 l 168 450 q 99 470 126 450 q 60 518 71 490 l 117 611 q 187 553 142 569 q 282 536 232 536 q 358 544 322 536 l 419 460 q 296 63 308 225 l 317 54 q 372 92 340 60 q 439 183 404 124 l 444 183 q 390 72 418 121 q 350 16 367 32 q 313 0 333 0 l 293 0 z "},"s":{"ha":322,"x_min":-14,"x_max":360,"o":"m 68 0 q 10 43 33 14 q -14 114 -14 72 q -3 172 -14 146 q 21 213 7 197 l 26 213 q 15 156 15 185 q 21 122 15 138 q 55 81 31 97 q 104 65 79 65 q 119 67 114 65 q 156 208 149 121 q 157 250 157 222 q 154 331 157 286 q 150 393 151 376 q 143 526 143 472 q 171 671 143 626 l 292 671 q 340 646 319 669 q 360 575 360 622 l 353 575 q 323 606 347 593 q 254 619 299 619 q 243 543 243 583 q 246 500 243 531 q 256 417 251 444 q 264 345 257 406 q 271 232 271 285 q 232 54 271 122 l 68 0 z "},"t":{"ha":192,"x_min":-50,"x_max":410,"o":"m 68 0 l -12 54 l 147 679 l -22 679 l -50 733 q 68 772 3 736 q 193 857 133 807 l 264 783 l 251 733 l 410 733 l 381 679 l 239 679 l 82 58 l 90 54 q 147 92 114 60 q 214 183 179 124 l 218 183 q 164 72 193 121 q 124 16 140 32 q 88 0 107 0 l 68 0 m 163 733 l 175 785 q 93 733 140 758 l 163 733 z "},"u":{"ha":435,"x_min":-14,"x_max":472,"o":"m 54 0 l -14 54 l 147 671 l 229 619 l 68 53 l 76 54 q 182 165 121 88 q 308 358 243 243 l 390 671 l 472 619 l 311 53 l 319 54 q 376 92 343 60 q 443 183 408 124 l 447 183 q 393 72 422 121 q 353 16 369 32 q 317 0 336 0 l 296 0 l 229 54 l 288 276 l 251 210 q 150 63 204 125 q 74 0 96 0 l 54 0 z "},"v":{"ha":357,"x_min":-14,"x_max":479,"o":"m 479 619 l 89 0 l 44 0 l -14 54 l 89 671 l 158 619 l 54 54 l 408 671 l 479 619 z "},"w":{"ha":521,"x_min":-14,"x_max":639,"o":"m 308 0 l 264 0 l 196 54 l 240 256 l 238 251 l 221 221 q 124 54 158 108 q 74 0 90 0 l 54 0 l -14 54 l 147 671 l 229 619 l 68 53 l 76 54 q 257 333 151 151 l 329 671 l 400 619 l 278 61 l 569 671 l 639 619 l 308 0 z "},"x":{"ha":510,"x_min":-37,"x_max":500,"o":"m -37 54 q 89 199 14 94 l 171 313 q 199 352 185 333 q 225 389 213 371 l 96 671 l 189 671 l 282 469 l 425 671 l 500 619 q 318 393 415 524 l 475 54 l 403 0 l 260 311 q 242 287 250 299 q 228 265 235 275 q 103 95 157 163 q 17 0 49 28 l -37 54 z "},"y":{"ha":389,"x_min":-62,"x_max":450,"o":"m 57 -208 q -26 -172 4 -203 q -62 -100 -56 -140 l 13 -60 q 44 -140 15 -104 q 107 -167 65 -167 q 136 -125 122 -147 l 263 268 q 232 210 239 222 q 131 63 185 125 q 54 0 76 0 l 35 0 l -33 54 l 128 671 l 210 619 l 49 53 l 57 54 q 166 170 103 89 q 297 372 229 251 l 393 671 l 450 619 l 222 -135 l 57 -207 l 57 -208 z "},"z":{"ha":567,"x_min":-50,"x_max":568,"o":"m -47 -135 q -50 -118 -50 -129 q 29 53 -50 -57 q 153 179 78 121 q 303 275 228 238 l 344 231 q 196 125 318 228 q 90 -1 132 72 q 29 -143 47 -74 q 172 -92 90 -140 q 338 57 254 -43 q 458 248 421 157 q 494 403 496 339 q 454 410 482 410 q 343 386 410 410 q 225 315 288 367 q 110 203 163 264 l 60 289 l 329 560 q 244 532 301 543 q 121 517 186 521 l 78 604 q 135 597 106 597 q 288 619 200 597 q 460 671 376 640 l 506 617 l 319 460 q 456 476 375 481 l 561 378 q 568 336 568 364 q 457 69 568 233 q 273 -106 382 -40 q 58 -193 164 -172 l -47 -135 z "},"":{"ha":690,"x_min":-28,"x_max":726,"o":"m 354 0 l 274 54 q 288 176 276 104 q 322 328 300 247 q 431 671 365 483 l 333 671 l -11 13 l -28 31 l 263 671 l 257 671 q 178 694 215 671 q 117 753 142 718 l 174 846 q 281 775 208 790 q 422 763 353 760 q 361 797 389 772 q 315 850 333 821 l 374 956 q 463 881 403 901 q 588 860 522 860 q 646 864 621 860 l 726 740 q 664 569 697 669 q 603 360 631 469 q 554 63 564 204 l 575 54 q 631 92 599 60 q 697 183 663 124 l 703 183 q 649 74 678 122 q 608 16 624 32 q 572 0 592 0 l 551 0 l 551 1 l 472 61 q 476 122 472 85 q 450 74 465 97 q 409 16 425 32 q 374 0 393 0 l 354 0 m 376 54 q 423 83 396 58 q 481 151 450 107 q 521 369 490 249 q 629 757 564 544 l 456 757 l 453 757 l 528 656 q 404 318 457 507 q 356 64 369 194 l 376 54 z "},"":{"ha":576,"x_min":-14,"x_max":590,"o":"m 68 0 q 10 55 33 18 q -14 144 -14 92 q -3 216 -14 183 q 21 268 7 249 l 26 268 q 17 200 17 236 q 22 156 17 176 q 56 102 32 122 q 106 82 79 82 q 119 83 115 82 q 156 264 149 154 q 157 356 157 293 l 156 465 q 154 574 154 503 q 163 735 154 667 q 192 846 171 803 l 313 846 q 360 815 340 844 q 381 726 381 786 l 372 726 q 342 766 367 750 q 275 782 318 782 q 264 686 264 735 q 267 632 264 671 q 281 363 281 460 q 251 122 281 215 q 285 81 261 97 q 335 65 310 65 q 350 67 344 65 q 385 208 379 122 q 386 257 386 224 q 383 335 386 292 q 379 396 381 379 q 372 525 372 472 q 401 671 372 624 l 522 671 q 570 646 550 669 q 590 575 590 622 l 583 575 q 553 606 578 593 q 485 619 528 619 q 474 543 474 583 q 476 500 474 531 q 486 414 482 440 q 494 342 488 401 q 501 231 501 282 q 463 54 501 121 l 299 0 q 256 26 276 8 q 225 67 236 43 l 68 0 z "},"":{"ha":521,"x_min":-14,"x_max":533,"o":"m 431 679 l 268 0 l 188 57 l 340 679 l 275 679 l 104 0 l 24 54 l 183 679 l 14 679 l -14 733 q 105 772 39 736 q 231 857 171 807 l 301 783 l 289 733 l 354 733 l 408 956 l 479 878 l 444 733 l 533 733 l 504 679 l 431 679 m 199 733 l 211 785 q 129 733 182 761 l 199 733 z "},"":{"ha":383,"x_min":-14,"x_max":457,"o":"m 67 0 l -14 54 l 222 956 l 290 850 l 81 53 l 90 54 q 125 74 104 58 q 169 119 146 90 l 389 956 l 457 850 l 247 53 l 257 54 q 313 92 281 60 q 379 183 344 124 l 383 183 q 329 74 358 122 q 288 16 304 32 q 253 0 272 0 l 233 0 l 153 54 l 153 56 q 119 13 133 25 q 86 0 104 0 l 67 0 z "},"ﬀ":{"ha":556,"x_min":-69,"x_max":568,"o":"m -69 -175 l 213 906 l 282 800 l 167 361 l 197 378 l 315 378 l 465 906 l 533 808 l 411 378 l 568 378 l 560 349 l 465 342 l 514 306 q 499 167 517 251 q 425 -26 482 83 q 337 -144 382 -108 q 256 -174 292 -179 l 182 -97 l 203 -22 q 174 -93 190 -56 q 85 -224 131 -185 q 4 -257 40 -262 l -69 -175 m 400 338 l 271 -118 l 272 -117 q 361 -5 315 -99 q 435 203 407 89 q 444 271 444 240 q 426 339 444 313 l 400 338 m 21 -193 q 110 -69 64 -174 q 183 164 156 36 q 192 239 192 208 q 160 336 192 307 l 21 -193 m 303 331 l 208 325 l 263 279 q 253 156 265 229 l 303 331 z "},"Á":{"ha":565,"x_min":-14,"x_max":736,"o":"m -3 -6 q 21 122 21 57 q -14 243 21 196 l 39 290 l 242 290 l 285 369 q 586 882 379 542 l 649 851 l 675 799 l 531 335 q 517 290 524 315 l 575 290 l 556 243 l 506 243 q 481 43 481 138 q 483 -6 481 13 l 390 50 q 433 243 408 150 l 300 243 q 157 15 224 94 q 46 -79 90 -64 l -3 -6 m 446 290 q 520 542 479 413 q 590 756 561 671 q 325 290 453 532 l 446 290 m 75 40 q 142 118 110 71 q 217 243 174 165 l 58 243 q 83 107 83 165 q 75 40 83 74 m 654 892 q 639 892 649 888 q 629 908 629 896 q 650 947 629 925 q 724 1022 685 985 l 736 971 l 654 892 z "},"Â":{"ha":565,"x_min":-14,"x_max":710,"o":"m 688 863 q 633 940 657 900 q 593 879 614 906 l 649 851 l 675 799 l 531 335 q 517 290 524 315 l 575 290 l 556 243 l 506 243 q 481 43 481 138 q 483 -6 481 13 l 390 50 q 433 243 408 150 l 300 243 q 157 15 224 94 q 46 -79 90 -64 l -3 -6 q 21 122 21 57 q -14 243 21 196 l 39 290 l 242 290 l 285 369 q 415 597 338 464 q 551 824 493 729 l 576 867 l 557 911 l 619 999 q 622 1003 619 1000 l 624 1004 l 629 1007 q 642 1004 639 1010 l 644 1001 l 646 999 l 710 911 l 688 863 m 446 290 q 520 542 479 413 q 590 756 561 671 q 325 290 453 532 l 446 290 m 75 40 q 142 118 110 71 q 217 243 174 165 l 58 243 q 83 107 83 165 q 75 40 83 74 z "},"Ä":{"ha":565,"x_min":-14,"x_max":675,"o":"m 583 928 l 592 883 l 550 883 l 542 928 l 583 928 m 644 928 l 654 883 l 611 883 l 603 928 l 644 928 m -3 -6 q 21 122 21 57 q -14 243 21 196 l 39 290 l 242 290 l 285 369 q 586 882 379 542 l 649 851 l 675 799 l 531 335 q 517 290 524 315 l 575 290 l 556 243 l 506 243 q 481 43 481 138 q 483 -6 481 13 l 390 50 q 433 243 408 150 l 300 243 q 157 15 224 94 q 46 -79 90 -64 l -3 -6 m 446 290 q 520 542 479 413 q 590 756 561 671 q 325 290 453 532 l 446 290 m 75 40 q 142 118 110 71 q 217 243 174 165 l 58 243 q 83 107 83 165 q 75 40 83 74 z "},"À":{"ha":565,"x_min":-14,"x_max":681,"o":"m -3 -6 q 21 122 21 57 q -14 243 21 196 l 39 290 l 242 290 l 285 369 q 586 882 379 542 l 649 851 l 675 799 l 531 335 q 517 290 524 315 l 575 290 l 556 243 l 506 243 q 481 43 481 138 q 483 -6 481 13 l 390 50 q 433 243 408 150 l 300 243 q 157 15 224 94 q 46 -79 90 -64 l -3 -6 m 446 290 q 520 542 479 413 q 590 756 561 671 q 325 290 453 532 l 446 290 m 75 40 q 142 118 110 71 q 217 243 174 165 l 58 243 q 83 107 83 165 q 75 40 83 74 m 613 975 l 647 1014 q 678 914 664 963 l 681 892 q 660 860 681 860 q 647 867 650 860 l 613 975 z "},"Å":{"ha":565,"x_min":-14,"x_max":721,"o":"m -3 -6 q 21 122 21 57 q -14 243 21 196 l 39 290 l 242 290 l 285 369 q 586 882 379 542 l 649 851 l 675 799 l 531 335 q 517 290 524 315 l 575 290 l 556 243 l 506 243 q 481 43 481 138 q 483 -6 481 13 l 390 50 q 433 243 408 150 l 300 243 q 157 15 224 94 q 46 -79 90 -64 l -3 -6 m 446 290 q 520 542 479 413 q 590 756 561 671 q 325 290 453 532 l 446 290 m 75 40 q 142 118 110 71 q 217 243 174 165 l 58 243 q 83 107 83 165 q 75 40 83 74 m 717 900 q 694 875 708 883 q 664 867 681 867 q 624 881 640 867 q 607 921 607 896 q 624 960 607 950 q 656 969 640 969 q 704 956 688 969 q 721 921 721 942 q 717 900 721 911 m 689 917 q 685 939 692 928 q 664 950 678 950 q 650 947 656 950 q 632 922 632 939 q 642 897 632 908 q 664 886 653 886 q 689 917 683 886 z "},"Ã":{"ha":565,"x_min":-14,"x_max":735,"o":"m -3 -6 q 21 122 21 57 q -14 243 21 196 l 39 290 l 242 290 l 285 369 q 586 882 379 542 l 649 851 l 675 799 l 531 335 q 517 290 524 315 l 575 290 l 556 243 l 506 243 q 481 43 481 138 q 483 -6 481 13 l 390 50 q 433 243 408 150 l 300 243 q 157 15 224 94 q 46 -79 90 -64 l -3 -6 m 446 290 q 520 542 479 413 q 590 756 561 671 q 325 290 453 532 l 446 290 m 75 40 q 142 118 110 71 q 217 243 174 165 l 58 243 q 83 107 83 165 q 75 40 83 74 m 538 903 q 535 900 536 900 q 526 910 531 900 q 525 925 522 921 q 550 958 532 943 q 588 972 568 972 q 608 967 599 972 q 682 943 650 943 q 726 960 707 943 l 729 961 q 735 950 731 961 l 735 944 l 735 943 q 731 938 735 940 q 726 933 728 935 q 703 917 713 922 q 681 911 693 911 q 631 926 660 911 q 599 932 619 932 q 559 924 576 932 q 538 903 542 917 z "},"Æ":{"ha":828,"x_min":-14,"x_max":1024,"o":"m 757 636 l 818 856 q 740 835 776 854 q 688 779 703 817 q 681 736 681 764 q 702 623 681 689 q 757 479 724 557 q 765 458 761 468 q 774 438 769 447 q 797 356 790 397 q 800 283 803 315 l 724 265 q 716 363 726 310 q 681 464 706 417 l 681 465 q 615 416 650 451 q 549 317 579 381 q 526 263 543 304 l 575 263 l 556 215 l 514 215 q 496 50 493 129 q 529 22 506 33 q 588 11 553 11 q 650 19 613 11 q 762 82 710 35 q 847 188 814 129 l 861 169 q 806 67 839 115 q 733 -4 772 18 q 631 -44 681 -35 q 522 -54 581 -54 l 518 -51 l 482 -24 l 483 -33 l 390 22 q 433 215 408 122 l 300 215 q 157 -12 224 67 q 46 -107 90 -92 l -3 -33 q 21 94 21 29 q -14 215 21 168 l 39 263 l 242 263 l 285 342 q 586 854 379 514 l 618 839 q 668 892 638 875 q 726 908 699 908 l 811 907 l 886 842 l 886 840 q 881 808 886 828 q 982 876 935 858 l 1024 828 q 888 715 943 789 q 808 563 833 642 l 757 636 m 446 263 q 520 514 479 385 q 590 728 561 643 q 325 263 453 504 l 446 263 m 588 489 q 649 526 618 513 q 619 592 633 556 l 588 489 m 75 13 q 142 90 110 43 q 217 215 174 138 l 58 215 q 83 79 83 138 q 75 13 83 46 z "},"É":{"ha":419,"x_min":14,"x_max":615,"o":"m 110 -62 l 19 8 q 14 79 14 38 q 61 311 14 193 q 147 449 97 400 q 240 515 197 497 q 185 711 185 624 q 188 754 185 726 q 237 863 197 829 q 318 897 276 897 l 403 896 l 478 831 l 478 829 q 472 797 478 817 q 574 865 526 847 l 615 817 q 480 704 535 778 q 400 551 425 631 l 349 625 l 410 844 q 331 824 367 843 q 279 768 294 806 q 272 725 272 753 q 294 612 272 678 q 349 468 315 546 q 357 447 353 457 q 365 426 361 436 q 388 345 382 386 q 392 272 394 304 l 315 254 q 308 352 318 299 q 272 453 297 406 l 272 454 q 205 405 240 440 q 140 306 169 369 q 98 174 111 246 q 88 39 85 101 q 121 11 97 22 q 179 0 144 0 q 242 8 207 0 q 353 71 301 24 q 439 176 406 118 l 453 158 q 397 56 431 104 q 325 -15 364 7 q 222 -56 272 -46 q 114 -65 172 -65 l 110 -62 m 390 997 q 375 997 385 993 q 365 1014 365 1001 q 386 1053 365 1031 q 460 1128 421 1090 l 472 1076 l 390 997 z "},"Ê":{"ha":419,"x_min":14,"x_max":615,"o":"m 110 -62 l 19 8 q 14 79 14 38 q 61 311 14 193 q 147 449 97 400 q 240 515 197 497 q 185 711 185 624 q 188 754 185 726 q 237 863 197 829 q 318 897 276 897 l 403 896 l 478 831 l 478 829 q 472 797 478 817 q 574 865 526 847 l 615 817 q 480 704 535 778 q 400 551 425 631 l 349 625 l 410 844 q 331 824 367 843 q 279 768 294 806 q 272 725 272 753 q 294 612 272 678 q 349 468 315 546 q 357 447 353 457 q 365 426 361 436 q 388 345 382 386 q 392 272 394 304 l 315 254 q 308 352 318 299 q 272 453 297 406 l 272 454 q 205 405 240 440 q 140 306 169 369 q 98 174 111 246 q 88 39 85 101 q 121 11 97 22 q 179 0 144 0 q 242 8 207 0 q 353 71 301 24 q 439 176 406 118 l 453 158 q 397 56 431 104 q 325 -15 364 7 q 222 -56 272 -46 q 114 -65 172 -65 l 110 -62 m 456 1006 l 433 957 q 379 1035 403 994 q 325 957 357 994 l 303 1006 l 365 1093 q 368 1097 365 1094 l 369 1099 l 375 1101 q 388 1099 385 1104 l 390 1096 l 392 1093 l 456 1006 z "},"Ë":{"ha":419,"x_min":14,"x_max":615,"o":"m 110 -62 l 19 8 q 14 79 14 38 q 61 311 14 193 q 147 449 97 400 q 240 515 197 497 q 185 711 185 624 q 188 754 185 726 q 237 863 197 829 q 318 897 276 897 l 403 896 l 478 831 l 478 829 q 472 797 478 817 q 574 865 526 847 l 615 817 q 480 704 535 778 q 400 551 425 631 l 349 625 l 410 844 q 331 824 367 843 q 279 768 294 806 q 272 725 272 753 q 294 612 272 678 q 349 468 315 546 q 357 447 353 457 q 365 426 361 436 q 388 345 382 386 q 392 272 394 304 l 315 254 q 308 352 318 299 q 272 453 297 406 l 272 454 q 205 405 240 440 q 140 306 169 369 q 98 174 111 246 q 88 39 85 101 q 121 11 97 22 q 179 0 144 0 q 242 8 207 0 q 353 71 301 24 q 439 176 406 118 l 453 158 q 397 56 431 104 q 325 -15 364 7 q 222 -56 272 -46 q 114 -65 172 -65 l 110 -62 m 321 1035 l 336 988 l 268 988 l 254 1035 l 321 1035 m 421 1035 l 436 988 l 367 988 l 353 1035 l 421 1035 z "},"È":{"ha":419,"x_min":14,"x_max":615,"o":"m 110 -62 l 19 8 q 14 79 14 38 q 61 311 14 193 q 147 449 97 400 q 240 515 197 497 q 185 711 185 624 q 188 754 185 726 q 237 863 197 829 q 318 897 276 897 l 403 896 l 478 831 l 478 829 q 472 797 478 817 q 574 865 526 847 l 615 817 q 480 704 535 778 q 400 551 425 631 l 349 625 l 410 844 q 331 824 367 843 q 279 768 294 806 q 272 725 272 753 q 294 612 272 678 q 349 468 315 546 q 357 447 353 457 q 365 426 361 436 q 388 345 382 386 q 392 272 394 304 l 315 254 q 308 352 318 299 q 272 453 297 406 l 272 454 q 205 405 240 440 q 140 306 169 369 q 98 174 111 246 q 88 39 85 101 q 121 11 97 22 q 179 0 144 0 q 242 8 207 0 q 353 71 301 24 q 439 176 406 118 l 453 158 q 397 56 431 104 q 325 -15 364 7 q 222 -56 272 -46 q 114 -65 172 -65 l 110 -62 m 335 1090 l 369 1129 q 400 1029 386 1078 l 403 1007 q 382 975 403 975 q 369 982 372 975 l 335 1090 z "},"Í":{"ha":278,"x_min":-14,"x_max":508,"o":"m -14 -22 q 99 14 39 7 l 78 49 l 304 883 q 232 913 258 897 l 258 978 q 334 938 292 956 q 417 915 376 919 q 469 913 439 913 q 508 918 503 913 l 496 886 q 394 874 450 874 q 354 875 368 874 l 369 846 l 138 17 q 250 4 199 19 l 263 -28 q 224 -22 257 -22 q 171 -25 193 -22 q 89 -47 131 -29 q 14 -86 47 -64 l -14 -22 m 385 1015 q 369 1015 379 1011 q 360 1032 360 1019 q 381 1071 360 1049 q 454 1146 415 1108 l 467 1094 l 385 1015 z "},"Î":{"ha":278,"x_min":-14,"x_max":508,"o":"m -14 -22 q 99 14 39 7 l 78 49 l 304 883 q 232 913 258 897 l 258 978 q 334 938 292 956 q 417 915 376 919 q 469 913 439 913 q 508 918 503 913 l 496 886 q 394 874 450 874 q 354 875 368 874 l 369 846 l 138 17 q 250 4 199 19 l 263 -28 q 224 -22 257 -22 q 171 -25 193 -22 q 89 -47 131 -29 q 14 -86 47 -64 l -14 -22 m 460 1081 l 438 1032 q 383 1110 407 1069 q 329 1032 361 1069 l 307 1081 l 369 1168 q 372 1172 369 1169 l 374 1174 l 379 1176 q 392 1174 389 1179 l 394 1171 l 396 1168 l 460 1081 z "},"Ï":{"ha":278,"x_min":-14,"x_max":508,"o":"m -14 -22 q 99 14 39 7 l 78 49 l 304 883 q 232 913 258 897 l 258 978 q 334 938 292 956 q 417 915 376 919 q 469 913 439 913 q 508 918 503 913 l 496 886 q 394 874 450 874 q 354 875 368 874 l 369 846 l 138 17 q 250 4 199 19 l 263 -28 q 224 -22 257 -22 q 171 -25 193 -22 q 89 -47 131 -29 q 14 -86 47 -64 l -14 -22 m 303 1119 l 318 1072 l 250 1072 l 236 1119 l 303 1119 m 403 1119 l 418 1072 l 349 1072 l 335 1119 l 403 1119 z "},"Ì":{"ha":278,"x_min":-14,"x_max":508,"o":"m -14 -22 q 99 14 39 7 l 78 49 l 304 883 q 232 913 258 897 l 258 978 q 334 938 292 956 q 417 915 376 919 q 469 913 439 913 q 508 918 503 913 l 496 886 q 394 874 450 874 q 354 875 368 874 l 369 846 l 138 17 q 250 4 199 19 l 263 -28 q 224 -22 257 -22 q 171 -25 193 -22 q 89 -47 131 -29 q 14 -86 47 -64 l -14 -22 m 335 1114 l 369 1153 q 400 1053 386 1101 l 403 1031 q 382 999 403 999 q 369 1006 372 999 l 335 1114 z "},"Ñ":{"ha":478,"x_min":-14,"x_max":588,"o":"m 503 836 l 106 -11 l 60 64 l 272 853 q 169 780 233 814 q 40 722 106 746 l -14 788 q 128 850 57 804 q 257 950 200 896 l 290 919 l 351 861 l 194 301 l 493 950 l 525 919 l 550 897 l 588 861 l 374 101 l 342 -11 l 296 64 l 503 836 m 313 963 q 310 960 311 960 q 301 970 306 960 q 300 985 297 981 q 325 1017 307 1003 q 363 1032 343 1032 q 383 1026 374 1032 q 457 1003 425 1003 q 501 1019 482 1003 l 504 1021 q 510 1010 506 1021 l 510 1004 l 510 1003 q 506 997 510 1000 q 501 993 503 994 q 478 976 488 982 q 456 971 468 971 q 406 986 435 971 q 374 992 394 992 q 334 984 351 992 q 313 963 317 976 z "},"Ó":{"ha":496,"x_min":46,"x_max":558,"o":"m 71 76 q 53 144 60 101 q 46 240 46 188 q 111 581 46 392 q 254 840 169 744 q 422 964 339 936 l 513 933 q 545 872 532 910 q 558 789 558 835 q 513 619 558 707 q 424 489 474 544 l 489 503 q 492 457 492 485 q 473 309 492 390 q 406 150 454 228 q 323 50 361 82 q 253 10 285 18 q 176 3 222 3 l 71 76 m 143 76 q 182 68 160 68 q 253 90 215 68 q 331 169 292 113 q 387 294 371 228 q 403 422 403 361 q 401 467 403 456 q 336 416 368 435 q 279 392 304 397 l 226 469 q 313 513 265 476 q 407 619 361 550 q 467 828 467 711 q 457 917 467 883 q 335 811 400 886 q 218 628 271 736 q 144 399 165 521 q 128 215 128 303 q 143 76 128 138 m 426 985 q 411 985 421 981 q 401 1001 401 989 q 422 1040 401 1018 q 496 1115 457 1078 l 508 1064 l 426 985 z "},"Ô":{"ha":496,"x_min":46,"x_max":558,"o":"m 71 76 q 53 144 60 101 q 46 240 46 188 q 111 581 46 392 q 254 840 169 744 q 422 964 339 936 l 513 933 q 545 872 532 910 q 558 789 558 835 q 513 619 558 707 q 424 489 474 544 l 489 503 q 492 457 492 485 q 473 309 492 390 q 406 150 454 228 q 323 50 361 82 q 253 10 285 18 q 176 3 222 3 l 71 76 m 143 76 q 182 68 160 68 q 253 90 215 68 q 331 169 292 113 q 387 294 371 228 q 403 422 403 361 q 401 467 403 456 q 336 416 368 435 q 279 392 304 397 l 226 469 q 313 513 265 476 q 407 619 361 550 q 467 828 467 711 q 457 917 467 883 q 335 811 400 886 q 218 628 271 736 q 144 399 165 521 q 128 215 128 303 q 143 76 128 138 m 524 1017 l 501 968 q 447 1046 471 1006 q 393 968 425 1006 l 371 1017 l 433 1104 q 436 1108 433 1106 l 438 1110 l 443 1113 q 456 1110 453 1115 l 458 1107 l 460 1104 l 524 1017 z "},"Ö":{"ha":496,"x_min":46,"x_max":558,"o":"m 71 76 q 53 144 60 101 q 46 240 46 188 q 111 581 46 392 q 254 840 169 744 q 422 964 339 936 l 513 933 q 545 872 532 910 q 558 789 558 835 q 513 619 558 707 q 424 489 474 544 l 489 503 q 492 457 492 485 q 473 309 492 390 q 406 150 454 228 q 323 50 361 82 q 253 10 285 18 q 176 3 222 3 l 71 76 m 143 76 q 182 68 160 68 q 253 90 215 68 q 331 169 292 113 q 387 294 371 228 q 403 422 403 361 q 401 467 403 456 q 336 416 368 435 q 279 392 304 397 l 226 469 q 313 513 265 476 q 407 619 361 550 q 467 828 467 711 q 457 917 467 883 q 335 811 400 886 q 218 628 271 736 q 144 399 165 521 q 128 215 128 303 q 143 76 128 138 m 443 1051 l 458 1004 l 390 1004 l 376 1051 l 443 1051 m 543 1051 l 558 1004 l 489 1004 l 475 1051 l 543 1051 z "},"Ò":{"ha":496,"x_min":46,"x_max":558,"o":"m 71 76 q 53 144 60 101 q 46 240 46 188 q 111 581 46 392 q 254 840 169 744 q 422 964 339 936 l 513 933 q 545 872 532 910 q 558 789 558 835 q 513 619 558 707 q 424 489 474 544 l 489 503 q 492 457 492 485 q 473 309 492 390 q 406 150 454 228 q 323 50 361 82 q 253 10 285 18 q 176 3 222 3 l 71 76 m 143 76 q 182 68 160 68 q 253 90 215 68 q 331 169 292 113 q 387 294 371 228 q 403 422 403 361 q 401 467 403 456 q 336 416 368 435 q 279 392 304 397 l 226 469 q 313 513 265 476 q 407 619 361 550 q 467 828 467 711 q 457 917 467 883 q 335 811 400 886 q 218 628 271 736 q 144 399 165 521 q 128 215 128 303 q 143 76 128 138 m 429 1097 l 464 1136 q 494 1036 481 1085 l 497 1014 q 476 982 497 982 q 464 989 467 982 l 429 1097 z "},"Ø":{"ha":496,"x_min":46,"x_max":558,"o":"m 513 933 q 545 872 532 910 q 558 789 558 835 q 513 619 558 707 q 424 489 474 544 l 489 503 q 492 457 492 485 q 473 309 492 390 q 406 150 454 228 q 323 50 361 82 q 253 10 285 18 q 176 3 222 3 l 71 76 q 53 144 60 101 q 46 240 46 188 q 111 581 46 392 q 254 840 169 744 q 422 964 339 936 l 513 933 m 407 619 q 467 825 464 704 l 488 888 l 442 942 l 424 894 q 311 781 368 854 q 209 608 254 707 q 144 399 164 508 q 128 215 128 290 q 131 157 128 193 l 106 94 l 193 22 l 210 72 q 331 169 274 89 q 387 294 371 228 q 403 422 403 361 q 401 467 403 456 q 325 410 363 429 l 386 590 l 407 619 m 457 917 q 467 825 467 878 l 386 590 q 258 479 328 513 l 424 894 q 457 917 439 907 m 244 443 l 226 469 q 258 479 240 471 l 244 443 m 244 443 l 279 392 q 325 410 299 397 l 210 72 q 182 69 200 69 q 153 73 163 69 q 143 76 144 76 q 131 157 135 108 l 244 443 z "},"Õ":{"ha":496,"x_min":46,"x_max":558,"o":"m 71 76 q 53 144 60 101 q 46 240 46 188 q 111 581 46 392 q 254 840 169 744 q 422 964 339 936 l 513 933 q 545 872 532 910 q 558 789 558 835 q 513 619 558 707 q 424 489 474 544 l 489 503 q 492 457 492 485 q 473 309 492 390 q 406 150 454 228 q 323 50 361 82 q 253 10 285 18 q 176 3 222 3 l 71 76 m 143 76 q 182 68 160 68 q 253 90 215 68 q 331 169 292 113 q 387 294 371 228 q 403 422 403 361 q 401 467 403 456 q 336 416 368 435 q 279 392 304 397 l 226 469 q 313 513 265 476 q 407 619 361 550 q 467 828 467 711 q 457 917 467 883 q 335 811 400 886 q 218 628 271 736 q 144 399 165 521 q 128 215 128 303 q 143 76 128 138 m 346 981 q 343 978 344 978 q 335 988 339 978 q 333 1003 331 999 q 358 1035 340 1021 q 396 1050 376 1050 q 417 1044 407 1050 q 490 1021 458 1021 q 535 1038 515 1021 l 538 1039 q 543 1028 539 1039 l 543 1022 l 543 1021 q 540 1015 543 1018 q 535 1011 536 1013 q 511 994 521 1000 q 489 989 501 989 q 439 1004 468 989 q 407 1010 428 1010 q 367 1002 385 1010 q 346 981 350 994 z "},"Œ":{"ha":771,"x_min":46,"x_max":967,"o":"m 700 683 l 761 903 q 683 883 719 901 q 631 826 646 864 q 624 783 624 811 q 645 670 624 736 q 700 526 667 604 q 708 505 704 515 q 717 485 713 494 q 740 403 733 444 q 743 331 746 363 l 667 313 q 659 410 669 357 q 624 511 649 464 l 624 513 q 558 463 593 499 q 492 364 522 428 l 478 333 q 453 243 469 288 q 439 97 436 168 q 472 69 449 81 q 531 58 496 58 q 593 67 556 58 q 705 129 653 82 q 790 235 757 176 l 804 217 q 749 114 782 163 q 676 43 715 65 q 574 3 624 13 q 465 -7 524 -7 l 461 -4 l 371 67 q 367 96 368 79 q 301 33 332 53 q 242 8 269 13 q 176 3 215 3 l 71 76 q 53 144 60 101 q 46 240 46 188 q 111 581 46 392 q 254 840 169 744 q 422 964 339 936 l 513 933 q 550 858 538 904 q 601 933 567 910 q 669 956 636 956 l 754 954 l 829 889 l 829 888 q 824 856 829 875 q 925 924 878 906 l 967 875 q 831 763 886 836 q 751 610 776 689 l 700 683 m 331 169 q 383 282 364 218 l 389 301 q 403 422 403 357 q 401 467 403 456 q 336 416 368 435 q 279 392 304 397 l 226 469 q 313 513 265 476 q 407 619 361 550 q 467 828 467 711 q 457 917 467 883 q 335 811 400 886 q 218 628 271 736 q 144 399 165 521 q 128 215 128 303 q 143 76 128 138 q 182 68 160 68 q 253 90 215 68 q 331 169 292 113 m 489 497 q 592 574 538 551 q 544 697 556 649 q 513 619 536 667 q 424 489 474 544 l 489 503 l 489 497 z "},"Ú":{"ha":399,"x_min":-14,"x_max":533,"o":"m -14 60 l 232 965 l 283 875 l 58 76 q 69 74 63 74 q 163 150 106 74 q 336 425 232 242 l 482 965 l 533 875 l 308 76 q 326 48 314 58 q 356 40 339 38 q 400 76 388 47 l 408 76 q 372 23 401 44 q 288 1 342 1 l 236 60 l 297 283 q 165 83 235 165 q 38 1 94 1 l -14 60 m 379 925 q 364 925 374 921 q 354 942 354 929 q 375 981 354 958 q 449 1056 410 1018 l 461 1004 l 379 925 z "},"Û":{"ha":399,"x_min":-14,"x_max":533,"o":"m -14 60 l 232 965 l 283 875 l 58 76 q 69 74 63 74 q 163 150 106 74 q 336 425 232 242 l 482 965 l 533 875 l 308 76 q 326 48 314 58 q 356 40 339 38 q 400 76 388 47 l 408 76 q 372 23 401 44 q 288 1 342 1 l 236 60 l 297 283 q 165 83 235 165 q 38 1 94 1 l -14 60 m 454 963 l 432 914 q 378 992 401 951 q 324 914 356 951 l 301 963 l 364 1050 q 367 1054 364 1051 l 368 1056 l 374 1058 q 386 1056 383 1061 l 389 1053 l 390 1050 l 454 963 z "},"Ü":{"ha":399,"x_min":-14,"x_max":533,"o":"m -14 60 l 232 965 l 283 875 l 58 76 q 69 74 63 74 q 163 150 106 74 q 336 425 232 242 l 482 965 l 533 875 l 308 76 q 326 48 314 58 q 356 40 339 38 q 400 76 388 47 l 408 76 q 372 23 401 44 q 288 1 342 1 l 236 60 l 297 283 q 165 83 235 165 q 38 1 94 1 l -14 60 m 356 1018 l 371 971 l 303 971 l 289 1018 l 356 1018 m 456 1018 l 471 971 l 401 971 l 388 1018 l 456 1018 z "},"Ù":{"ha":399,"x_min":-14,"x_max":533,"o":"m -14 60 l 232 965 l 283 875 l 58 76 q 69 74 63 74 q 163 150 106 74 q 336 425 232 242 l 482 965 l 533 875 l 308 76 q 326 48 314 58 q 356 40 339 38 q 400 76 388 47 l 408 76 q 372 23 401 44 q 288 1 342 1 l 236 60 l 297 283 q 165 83 235 165 q 38 1 94 1 l -14 60 m 335 1079 l 369 1118 q 400 1018 386 1067 l 403 996 q 382 964 403 964 q 369 971 372 964 l 335 1079 z "},"Ẃ":{"ha":596,"x_min":46,"x_max":778,"o":"m 374 82 l 699 954 l 778 881 l 407 -7 l 358 -7 l 282 72 l 331 358 l 328 354 l 300 289 q 198 65 233 136 q 144 -7 163 -7 l 122 -7 l 46 72 l 226 954 l 318 881 l 139 69 q 149 72 140 69 q 350 471 231 211 l 431 954 l 510 881 l 374 82 m 426 983 q 411 983 421 979 q 401 1000 401 988 q 422 1039 401 1017 q 496 1114 457 1076 l 508 1063 l 426 983 z "},"Ŵ":{"ha":596,"x_min":46,"x_max":778,"o":"m 374 82 l 699 954 l 778 881 l 407 -7 l 358 -7 l 282 72 l 331 358 l 328 354 l 300 289 q 198 65 233 136 q 144 -7 163 -7 l 122 -7 l 46 72 l 226 954 l 318 881 l 139 69 q 149 72 140 69 q 350 471 231 211 l 431 954 l 510 881 l 374 82 m 529 1015 l 507 967 q 453 1044 476 1004 q 399 967 431 1004 l 376 1015 l 439 1103 q 442 1107 439 1104 l 443 1108 l 449 1111 q 461 1108 458 1114 l 464 1106 l 465 1103 l 529 1015 z "},"Ẅ":{"ha":596,"x_min":46,"x_max":778,"o":"m 374 82 l 699 954 l 778 881 l 407 -7 l 358 -7 l 282 72 l 331 358 l 328 354 l 300 289 q 198 65 233 136 q 144 -7 163 -7 l 122 -7 l 46 72 l 226 954 l 318 881 l 139 69 q 149 72 140 69 q 350 471 231 211 l 431 954 l 510 881 l 374 82 m 451 1032 l 467 985 l 399 985 l 385 1032 l 451 1032 m 551 1032 l 567 985 l 497 985 l 483 1032 l 551 1032 z "},"Ẁ":{"ha":596,"x_min":46,"x_max":778,"o":"m 374 82 l 699 954 l 778 881 l 407 -7 l 358 -7 l 282 72 l 331 358 l 328 354 l 300 289 q 198 65 233 136 q 144 -7 163 -7 l 122 -7 l 46 72 l 226 954 l 318 881 l 139 69 q 149 72 140 69 q 350 471 231 211 l 431 954 l 510 881 l 374 82 m 433 1086 l 468 1125 q 499 1025 485 1074 l 501 1003 q 481 971 501 971 q 468 978 471 971 l 433 1086 z "},"Ý":{"ha":465,"x_min":-14,"x_max":588,"o":"m 156 -18 q 83 -8 119 -18 q 24 28 47 1 q -14 115 -14 72 q -10 140 -14 129 l 90 104 q 100 51 89 76 q 136 13 111 26 q 196 -4 168 -4 q 238 6 215 -4 q 279 54 261 24 q 307 117 297 85 l 419 525 q 256 232 304 308 q 201 170 225 183 q 144 157 178 157 l 82 208 l 228 771 q 81 704 160 732 l 28 769 q 170 832 99 786 q 299 932 242 878 l 349 885 l 164 225 q 281 347 215 239 q 465 690 350 465 l 536 946 l 588 857 l 358 58 q 347 36 358 50 q 307 7 335 22 q 242 -14 276 -10 q 183 -17 207 -18 l 156 -18 m 426 982 q 411 982 421 978 q 401 999 401 986 q 422 1038 401 1015 q 496 1113 457 1075 l 508 1061 l 426 982 z "},"Ŷ":{"ha":465,"x_min":-14,"x_max":588,"o":"m 156 -18 q 83 -8 119 -18 q 24 28 47 1 q -14 115 -14 72 q -10 140 -14 129 l 90 104 q 100 51 89 76 q 136 13 111 26 q 196 -4 168 -4 q 238 6 215 -4 q 279 54 261 24 q 307 117 297 85 l 419 525 q 256 232 304 308 q 201 170 225 183 q 144 157 178 157 l 82 208 l 228 771 q 81 704 160 732 l 28 769 q 170 832 99 786 q 299 932 242 878 l 349 885 l 164 225 q 281 347 215 239 q 465 690 350 465 l 536 946 l 588 857 l 358 58 q 347 36 358 50 q 307 7 335 22 q 242 -14 276 -10 q 183 -17 207 -18 l 156 -18 m 499 1024 l 476 975 q 422 1053 446 1013 q 368 975 400 1013 l 346 1024 l 408 1111 q 411 1115 408 1113 l 413 1117 l 418 1119 q 431 1117 428 1122 l 433 1114 l 435 1111 l 499 1024 z "},"Ÿ":{"ha":465,"x_min":-14,"x_max":588,"o":"m 156 -18 q 83 -8 119 -18 q 24 28 47 1 q -14 115 -14 72 q -10 140 -14 129 l 90 104 q 100 51 89 76 q 136 13 111 26 q 196 -4 168 -4 q 238 6 215 -4 q 279 54 261 24 q 307 117 297 85 l 419 525 q 256 232 304 308 q 201 170 225 183 q 144 157 178 157 l 82 208 l 228 771 q 81 704 160 732 l 28 769 q 170 832 99 786 q 299 932 242 878 l 349 885 l 164 225 q 281 347 215 239 q 465 690 350 465 l 536 946 l 588 857 l 358 58 q 347 36 358 50 q 307 7 335 22 q 242 -14 276 -10 q 183 -17 207 -18 l 156 -18 m 399 1040 l 414 993 l 346 993 l 332 1040 l 399 1040 m 499 1040 l 514 993 l 444 993 l 431 1040 l 499 1040 z "},"Ỳ":{"ha":465,"x_min":-14,"x_max":588,"o":"m 156 -18 q 83 -8 119 -18 q 24 28 47 1 q -14 115 -14 72 q -10 140 -14 129 l 90 104 q 100 51 89 76 q 136 13 111 26 q 196 -4 168 -4 q 238 6 215 -4 q 279 54 261 24 q 307 117 297 85 l 419 525 q 256 232 304 308 q 201 170 225 183 q 144 157 178 157 l 82 208 l 228 771 q 81 704 160 732 l 28 769 q 170 832 99 786 q 299 932 242 878 l 349 885 l 164 225 q 281 347 215 239 q 465 690 350 465 l 536 946 l 588 857 l 358 58 q 347 36 358 50 q 307 7 335 22 q 242 -14 276 -10 q 183 -17 207 -18 l 156 -18 m 394 1075 l 429 1114 q 460 1014 446 1063 l 463 992 q 442 960 463 960 q 429 967 432 960 l 394 1075 z "},"á":{"ha":393,"x_min":-14,"x_max":504,"o":"m -11 56 q -14 106 -14 74 q 50 414 -14 246 q 160 588 92 524 q 297 672 228 653 q 357 628 349 644 q 368 567 365 613 q 440 672 408 631 l 504 621 q 385 434 440 536 q 308 238 331 332 q 272 56 281 125 q 328 93 296 61 q 394 185 360 125 l 400 185 q 346 75 374 124 q 305 17 321 33 q 268 1 289 1 l 207 56 q 229 256 207 154 q 47 1 96 15 l -11 56 m 56 42 q 132 149 89 69 q 263 371 169 215 q 282 415 269 392 q 310 569 310 503 q 303 621 310 601 q 206 510 257 582 q 118 342 156 438 q 66 169 81 247 q 56 42 51 90 m 307 738 q 292 738 301 733 q 282 754 282 742 q 303 793 282 771 q 376 868 338 831 l 389 817 l 307 738 z "},"â":{"ha":393,"x_min":-14,"x_max":504,"o":"m -11 56 q -14 106 -14 74 q 50 414 -14 246 q 160 588 92 524 q 297 672 228 653 q 357 628 349 644 q 368 567 365 613 q 440 672 408 631 l 504 621 q 385 434 440 536 q 308 238 331 332 q 272 56 281 125 q 328 93 296 61 q 394 185 360 125 l 400 185 q 346 75 374 124 q 305 17 321 33 q 268 1 289 1 l 207 56 q 229 256 207 154 q 47 1 96 15 l -11 56 m 56 42 q 132 149 89 69 q 263 371 169 215 q 282 415 269 392 q 310 569 310 503 q 303 621 310 601 q 206 510 257 582 q 118 342 156 438 q 66 169 81 247 q 56 42 51 90 m 388 763 l 365 714 q 311 792 335 751 q 257 714 289 751 l 235 763 l 297 850 q 300 854 297 851 l 301 856 l 307 858 q 319 856 317 861 l 322 853 l 324 850 l 388 763 z "},"ä":{"ha":393,"x_min":-14,"x_max":504,"o":"m -11 56 q -14 106 -14 74 q 50 414 -14 246 q 160 588 92 524 q 297 672 228 653 q 357 628 349 644 q 368 567 365 613 q 440 672 408 631 l 504 621 q 385 434 440 536 q 308 238 331 332 q 272 56 281 125 q 328 93 296 61 q 394 185 360 125 l 400 185 q 346 75 374 124 q 305 17 321 33 q 268 1 289 1 l 207 56 q 229 256 207 154 q 47 1 96 15 l -11 56 m 56 42 q 132 149 89 69 q 263 371 169 215 q 282 415 269 392 q 310 569 310 503 q 303 621 310 601 q 206 510 257 582 q 118 342 156 438 q 66 169 81 247 q 56 42 51 90 m 315 763 l 331 715 l 263 715 l 249 763 l 315 763 m 415 763 l 431 715 l 361 715 l 347 763 l 415 763 z "},"à":{"ha":393,"x_min":-14,"x_max":504,"o":"m -11 56 q -14 106 -14 74 q 50 414 -14 246 q 160 588 92 524 q 297 672 228 653 q 357 628 349 644 q 368 567 365 613 q 440 672 408 631 l 504 621 q 385 434 440 536 q 308 238 331 332 q 272 56 281 125 q 328 93 296 61 q 394 185 360 125 l 400 185 q 346 75 374 124 q 305 17 321 33 q 268 1 289 1 l 207 56 q 229 256 207 154 q 47 1 96 15 l -11 56 m 56 42 q 132 149 89 69 q 263 371 169 215 q 282 415 269 392 q 310 569 310 503 q 303 621 310 601 q 206 510 257 582 q 118 342 156 438 q 66 169 81 247 q 56 42 51 90 m 269 838 l 304 876 q 335 776 321 825 l 338 754 q 317 722 338 722 q 304 729 307 722 l 269 838 z "},"å":{"ha":393,"x_min":-14,"x_max":504,"o":"m -11 56 q -14 106 -14 74 q 50 414 -14 246 q 160 588 92 524 q 297 672 228 653 q 357 628 349 644 q 368 567 365 613 q 440 672 408 631 l 504 621 q 385 434 440 536 q 308 238 331 332 q 272 56 281 125 q 328 93 296 61 q 394 185 360 125 l 400 185 q 346 75 374 124 q 305 17 321 33 q 268 1 289 1 l 207 56 q 229 256 207 154 q 47 1 96 15 l -11 56 m 56 42 q 132 149 89 69 q 263 371 169 215 q 282 415 269 392 q 310 569 310 503 q 303 621 310 601 q 206 510 257 582 q 118 342 156 438 q 66 169 81 247 q 56 42 51 90 m 390 747 q 368 722 382 731 q 338 714 354 714 q 297 728 314 714 q 281 768 281 743 q 297 807 281 797 q 329 817 314 817 q 378 803 361 817 q 394 768 394 789 q 390 747 394 758 m 363 764 q 358 786 365 775 q 338 797 351 797 q 324 794 329 797 q 306 769 306 786 q 316 744 306 756 q 338 733 326 733 q 363 764 357 733 z "},"ã":{"ha":393,"x_min":-14,"x_max":504,"o":"m -11 56 q -14 106 -14 74 q 50 414 -14 246 q 160 588 92 524 q 297 672 228 653 q 357 628 349 644 q 368 567 365 613 q 440 672 408 631 l 504 621 q 385 434 440 536 q 308 238 331 332 q 272 56 281 125 q 328 93 296 61 q 394 185 360 125 l 400 185 q 346 75 374 124 q 305 17 321 33 q 268 1 289 1 l 207 56 q 229 256 207 154 q 47 1 96 15 l -11 56 m 56 42 q 132 149 89 69 q 263 371 169 215 q 282 415 269 392 q 310 569 310 503 q 303 621 310 601 q 206 510 257 582 q 118 342 156 438 q 66 169 81 247 q 56 42 51 90 m 236 701 q 233 699 235 699 q 225 709 229 699 q 224 724 221 719 q 249 756 231 742 q 286 771 267 771 q 307 765 297 771 q 381 742 349 742 q 425 758 406 742 l 428 760 q 433 749 429 760 l 433 743 l 433 742 q 430 736 433 739 q 425 732 426 733 q 401 715 411 721 q 379 710 392 710 q 329 725 358 710 q 297 731 318 731 q 258 723 275 731 q 236 701 240 715 z "},"æ":{"ha":529,"x_min":-14,"x_max":590,"o":"m 326 281 q 293 54 293 146 q 367 36 321 36 q 381 38 375 36 q 393 40 388 39 q 449 78 417 46 q 515 169 481 110 l 521 169 q 465 60 493 108 q 426 3 442 19 q 389 -14 410 -14 l 301 -14 l 222 40 q 218 101 218 63 q 233 250 218 172 q 133 95 193 181 q 47 1 74 10 l -11 56 q -14 106 -14 74 q 50 414 -14 246 q 160 588 92 524 q 297 672 228 653 q 357 628 349 644 q 367 583 365 613 q 432 657 401 631 l 547 657 l 579 631 q 590 563 590 601 q 547 396 590 485 q 465 284 515 329 q 361 218 414 239 l 326 281 m 500 625 q 457 567 476 603 q 404 454 438 531 q 374 388 394 435 q 332 301 353 342 l 331 296 q 410 327 371 296 q 482 438 450 358 q 511 565 511 511 q 506 612 511 599 q 500 625 500 625 m 56 42 q 132 149 89 69 q 263 371 169 215 l 268 385 q 292 447 276 413 q 310 569 310 514 q 303 621 310 601 q 206 510 257 582 q 118 342 156 438 q 66 169 81 247 q 56 42 51 90 z "},"é":{"ha":297,"x_min":-14,"x_max":358,"o":"m 69 1 l -10 56 q -14 117 -14 78 q 28 374 -14 232 q 106 553 58 476 q 200 672 153 631 l 315 672 l 347 646 q 358 578 358 617 q 315 411 358 500 q 233 299 283 344 q 129 233 182 254 l 94 296 q 61 69 61 161 q 92 54 72 60 q 135 51 111 49 q 149 53 143 51 q 161 56 156 54 q 217 93 185 61 q 283 185 249 125 l 289 185 q 233 75 263 124 q 194 18 210 35 q 157 1 178 1 l 69 1 m 99 311 q 179 343 139 311 q 250 453 219 375 q 279 581 279 526 q 274 627 279 614 q 268 640 268 640 q 176 517 221 597 q 100 317 132 438 l 99 311 m 265 738 q 250 738 260 733 q 240 754 240 742 q 261 793 240 771 q 335 868 296 831 l 347 817 l 265 738 z "},"ê":{"ha":297,"x_min":-14,"x_max":358,"o":"m 69 1 l -10 56 q -14 117 -14 78 q 28 374 -14 232 q 106 553 58 476 q 200 672 153 631 l 315 672 l 347 646 q 358 578 358 617 q 315 411 358 500 q 233 299 283 344 q 129 233 182 254 l 94 296 q 61 69 61 161 q 92 54 72 60 q 135 51 111 49 q 149 53 143 51 q 161 56 156 54 q 217 93 185 61 q 283 185 249 125 l 289 185 q 233 75 263 124 q 194 18 210 35 q 157 1 178 1 l 69 1 m 99 311 q 179 343 139 311 q 250 453 219 375 q 279 581 279 526 q 274 627 279 614 q 268 640 268 640 q 176 517 221 597 q 100 317 132 438 l 99 311 m 343 756 l 321 707 q 267 785 290 744 q 213 707 244 744 l 190 756 l 253 843 q 256 847 253 844 l 257 849 l 263 851 q 275 849 272 854 l 278 846 l 279 843 l 343 756 z "},"ë":{"ha":297,"x_min":-14,"x_max":358,"o":"m 69 1 l -10 56 q -14 117 -14 78 q 28 374 -14 232 q 106 553 58 476 q 200 672 153 631 l 315 672 l 347 646 q 358 578 358 617 q 315 411 358 500 q 233 299 283 344 q 129 233 182 254 l 94 296 q 61 69 61 161 q 92 54 72 60 q 135 51 111 49 q 149 53 143 51 q 161 56 156 54 q 217 93 185 61 q 283 185 249 125 l 289 185 q 233 75 263 124 q 194 18 210 35 q 157 1 178 1 l 69 1 m 99 311 q 179 343 139 311 q 250 453 219 375 q 279 581 279 526 q 274 627 279 614 q 268 640 268 640 q 176 517 221 597 q 100 317 132 438 l 99 311 m 218 763 l 233 715 l 165 715 l 151 763 l 218 763 m 318 763 l 333 715 l 264 715 l 250 763 l 318 763 z "},"è":{"ha":297,"x_min":-14,"x_max":358,"o":"m 69 1 l -10 56 q -14 117 -14 78 q 28 374 -14 232 q 106 553 58 476 q 200 672 153 631 l 315 672 l 347 646 q 358 578 358 617 q 315 411 358 500 q 233 299 283 344 q 129 233 182 254 l 94 296 q 61 69 61 161 q 92 54 72 60 q 135 51 111 49 q 149 53 143 51 q 161 56 156 54 q 217 93 185 61 q 283 185 249 125 l 289 185 q 233 75 263 124 q 194 18 210 35 q 157 1 178 1 l 69 1 m 99 311 q 179 343 139 311 q 250 453 219 375 q 279 581 279 526 q 274 627 279 614 q 268 640 268 640 q 176 517 221 597 q 100 317 132 438 l 99 311 m 247 814 l 282 853 q 313 753 299 801 l 315 731 q 294 699 315 699 q 282 706 285 699 l 247 814 z "},"ı":{"ha":175,"x_min":-14,"x_max":267,"o":"m 53 1 l 53 6 l -14 56 q 33 283 -7 114 q 92 476 54 371 q 171 672 131 581 l 267 672 q 241 615 267 669 q 158 396 215 560 q 68 54 103 235 l 76 56 q 132 93 100 61 q 199 185 164 125 l 204 185 q 150 75 178 124 q 109 17 125 33 q 72 1 93 1 l 53 1 z "},"í":{"ha":175,"x_min":-14,"x_max":315,"o":"m 53 1 l 53 6 l -14 56 q 33 283 -7 114 q 92 476 54 371 q 171 672 131 581 l 267 672 q 241 615 267 669 q 158 396 215 560 q 68 54 103 235 l 76 56 q 132 93 100 61 q 199 185 164 125 l 204 185 q 150 75 178 124 q 109 17 125 33 q 72 1 93 1 l 53 1 m 233 722 q 218 722 228 718 q 208 739 208 726 q 229 778 208 756 q 303 853 264 815 l 315 801 l 233 722 z "},"î":{"ha":175,"x_min":-14,"x_max":308,"o":"m 53 1 l 53 6 l -14 56 q 33 283 -7 114 q 92 476 54 371 q 171 672 131 581 l 267 672 q 241 615 267 669 q 158 396 215 560 q 68 54 103 235 l 76 56 q 132 93 100 61 q 199 185 164 125 l 204 185 q 150 75 178 124 q 109 17 125 33 q 72 1 93 1 l 53 1 m 308 746 l 286 697 q 232 775 256 735 q 178 697 210 735 l 156 746 l 218 833 q 221 838 218 835 l 222 839 l 228 842 q 240 839 238 844 l 243 836 l 244 833 l 308 746 z "},"ï":{"ha":175,"x_min":-14,"x_max":315,"o":"m 53 1 l 53 6 l -14 56 q 33 283 -7 114 q 92 476 54 371 q 171 672 131 581 l 267 672 q 241 615 267 669 q 158 396 215 560 q 68 54 103 235 l 76 56 q 132 93 100 61 q 199 185 164 125 l 204 185 q 150 75 178 124 q 109 17 125 33 q 72 1 93 1 l 53 1 m 200 763 l 215 715 l 147 715 l 133 763 l 200 763 m 300 763 l 315 715 l 246 715 l 232 763 l 300 763 z "},"ì":{"ha":175,"x_min":-14,"x_max":267,"o":"m 53 1 l 53 6 l -14 56 q 33 283 -7 114 q 92 476 54 371 q 171 672 131 581 l 267 672 q 241 615 267 669 q 158 396 215 560 q 68 54 103 235 l 76 56 q 132 93 100 61 q 199 185 164 125 l 204 185 q 150 75 178 124 q 109 17 125 33 q 72 1 93 1 l 53 1 m 188 810 l 222 849 q 253 749 239 797 l 256 726 q 235 694 256 694 q 222 701 225 694 l 188 810 z "},"ñ":{"ha":392,"x_min":-26,"x_max":440,"o":"m 332 567 l 42 0 l -26 54 l 135 671 l 217 619 l 75 118 l 358 671 l 440 619 l 281 56 q 397 183 338 79 l 403 183 q 349 72 376 121 q 308 16 325 32 q 271 0 292 0 l 265 0 l 197 54 l 332 567 m 213 679 q 210 676 211 676 q 201 687 206 676 q 200 701 197 697 q 225 734 207 719 q 263 749 243 749 q 283 743 274 749 q 357 719 325 719 q 401 736 382 719 l 404 738 q 410 726 406 738 l 410 721 l 410 719 q 406 714 410 717 q 401 710 403 711 q 378 693 388 699 q 356 688 368 688 q 306 703 335 688 q 274 708 294 708 q 234 701 251 708 q 213 679 217 693 z "},"ó":{"ha":388,"x_min":-14,"x_max":403,"o":"m 7 54 q -8 104 -1 71 q -14 181 -14 138 q 33 426 -14 304 q 107 574 65 511 q 186 671 149 638 l 315 671 l 365 619 q 332 490 365 560 l 392 499 q 400 429 400 471 q 344 211 400 326 q 257 85 306 132 q 165 19 208 38 q 90 0 121 0 l 7 54 m 74 54 q 100 47 85 47 q 171 81 131 47 q 257 204 211 115 q 324 421 324 332 q 318 465 324 443 q 257 382 290 418 l 210 382 q 286 572 286 481 q 271 644 286 615 q 196 567 238 626 q 122 423 154 508 q 76 246 89 338 q 68 125 68 174 q 74 54 68 90 m 321 717 q 306 717 315 713 q 296 733 296 721 q 317 772 296 750 q 390 847 351 810 l 403 796 l 321 717 z "},"ô":{"ha":388,"x_min":-14,"x_max":400,"o":"m 7 54 q -8 104 -1 71 q -14 181 -14 138 q 33 426 -14 304 q 107 574 65 511 q 186 671 149 638 l 315 671 l 365 619 q 332 490 365 560 l 392 499 q 400 429 400 471 q 344 211 400 326 q 257 85 306 132 q 165 19 208 38 q 90 0 121 0 l 7 54 m 74 54 q 100 47 85 47 q 171 81 131 47 q 257 204 211 115 q 324 421 324 332 q 318 465 324 443 q 257 382 290 418 l 210 382 q 286 572 286 481 q 271 644 286 615 q 196 567 238 626 q 122 423 154 508 q 76 246 89 338 q 68 125 68 174 q 74 54 68 90 m 325 746 l 303 697 q 249 775 272 735 q 194 697 226 735 l 172 746 l 235 833 q 238 838 235 835 l 239 839 l 244 842 q 257 839 254 844 l 260 836 l 261 833 l 325 746 z "},"ö":{"ha":388,"x_min":-14,"x_max":400,"o":"m 7 54 q -8 104 -1 71 q -14 181 -14 138 q 33 426 -14 304 q 107 574 65 511 q 186 671 149 638 l 315 671 l 365 619 q 332 490 365 560 l 392 499 q 400 429 400 471 q 344 211 400 326 q 257 85 306 132 q 165 19 208 38 q 90 0 121 0 l 7 54 m 74 54 q 100 47 85 47 q 171 81 131 47 q 257 204 211 115 q 324 421 324 332 q 318 465 324 443 q 257 382 290 418 l 210 382 q 286 572 286 481 q 271 644 286 615 q 196 567 238 626 q 122 423 154 508 q 76 246 89 338 q 68 125 68 174 q 74 54 68 90 m 257 763 l 272 715 l 204 715 l 190 763 l 257 763 m 357 763 l 372 715 l 303 715 l 289 763 l 357 763 z "},"ò":{"ha":388,"x_min":-14,"x_max":400,"o":"m 7 54 q -8 104 -1 71 q -14 181 -14 138 q 33 426 -14 304 q 107 574 65 511 q 186 671 149 638 l 315 671 l 365 619 q 332 490 365 560 l 392 499 q 400 429 400 471 q 344 211 400 326 q 257 85 306 132 q 165 19 208 38 q 90 0 121 0 l 7 54 m 74 54 q 100 47 85 47 q 171 81 131 47 q 257 204 211 115 q 324 421 324 332 q 318 465 324 443 q 257 382 290 418 l 210 382 q 286 572 286 481 q 271 644 286 615 q 196 567 238 626 q 122 423 154 508 q 76 246 89 338 q 68 125 68 174 q 74 54 68 90 m 211 838 l 246 876 q 276 776 263 825 l 279 754 q 258 722 279 722 q 246 729 249 722 l 211 838 z "},"ø":{"ha":388,"x_min":-14,"x_max":400,"o":"m 7 54 q -8 104 -1 71 q -14 181 -14 138 q 33 426 -14 304 q 107 574 65 511 q 186 671 149 638 l 315 671 l 365 619 q 332 490 365 560 l 392 499 q 400 429 400 471 q 344 211 400 326 q 257 85 306 132 q 165 19 208 38 q 90 0 121 0 l 7 54 m 74 54 q 100 47 85 47 q 171 81 131 47 q 257 204 211 115 q 324 421 324 332 q 318 465 324 443 q 257 382 290 418 l 210 382 q 286 572 286 481 q 271 644 286 615 q 196 567 238 626 q 122 423 154 508 q 76 246 89 338 q 68 125 68 174 q 74 54 68 90 m 307 638 l 25 101 l 68 28 l 326 585 l 307 638 z "},"õ":{"ha":388,"x_min":-14,"x_max":444,"o":"m 7 54 q -8 104 -1 71 q -14 181 -14 138 q 33 426 -14 304 q 107 574 65 511 q 186 671 149 638 l 315 671 l 365 619 q 332 490 365 560 l 392 499 q 400 429 400 471 q 344 211 400 326 q 257 85 306 132 q 165 19 208 38 q 90 0 121 0 l 7 54 m 74 54 q 100 47 85 47 q 171 81 131 47 q 257 204 211 115 q 324 421 324 332 q 318 465 324 443 q 257 382 290 418 l 210 382 q 286 572 286 481 q 271 644 286 615 q 196 567 238 626 q 122 423 154 508 q 76 246 89 338 q 68 125 68 174 q 74 54 68 90 m 247 693 q 244 690 246 690 q 236 701 240 690 q 235 715 232 711 q 260 748 242 733 q 297 763 278 763 q 318 757 308 763 q 392 733 360 733 q 436 750 417 733 l 439 751 q 444 740 440 751 l 444 735 l 444 733 q 441 728 444 731 q 436 724 438 725 q 413 707 422 713 q 390 701 403 701 q 340 717 369 701 q 308 722 329 722 q 269 715 286 722 q 247 693 251 707 z "},"œ":{"ha":590,"x_min":-14,"x_max":651,"o":"m 388 304 q 354 78 354 169 q 428 60 382 60 q 442 61 436 60 q 454 64 449 63 q 510 101 478 69 q 576 193 542 133 l 582 193 q 526 83 554 132 q 487 26 503 43 q 450 10 471 10 l 363 10 l 283 64 q 279 110 281 81 q 178 26 231 51 q 90 0 126 0 l 7 54 q -8 104 -1 71 q -14 181 -14 138 q 33 426 -14 304 q 107 574 65 511 q 186 671 149 638 l 315 671 l 365 619 q 332 490 365 560 l 363 494 q 427 606 392 558 q 493 681 463 654 l 608 681 l 640 654 q 651 586 651 625 q 608 419 651 508 q 526 308 576 353 q 422 242 475 263 l 388 304 m 561 649 q 518 590 538 626 q 465 478 499 554 q 435 412 456 458 q 393 325 414 365 l 392 319 q 472 351 432 319 q 543 461 511 382 q 572 589 572 535 q 567 635 572 622 q 561 649 561 649 m 74 54 q 100 47 85 47 q 171 81 131 47 q 257 204 211 115 q 301 306 279 246 q 319 378 306 328 q 324 421 324 403 q 318 465 324 443 q 257 382 290 418 l 210 382 q 286 572 286 481 q 271 644 286 615 q 196 567 238 626 q 122 423 154 508 q 76 246 89 338 q 68 125 68 174 q 74 54 68 90 z "},"ú":{"ha":435,"x_min":-14,"x_max":472,"o":"m 54 0 l -14 54 l 147 671 l 229 619 l 68 53 l 76 54 q 182 165 121 88 q 308 358 243 243 l 390 671 l 472 619 l 311 53 l 319 54 q 376 92 343 60 q 443 183 408 124 l 447 183 q 393 72 422 121 q 353 16 369 32 q 317 0 336 0 l 296 0 l 229 54 l 288 276 l 251 210 q 150 63 204 125 q 74 0 96 0 l 54 0 m 306 704 q 290 704 300 700 q 281 721 281 708 q 301 760 281 738 q 375 835 336 797 l 388 783 l 306 704 z "},"û":{"ha":435,"x_min":-14,"x_max":472,"o":"m 54 0 l -14 54 l 147 671 l 229 619 l 68 53 l 76 54 q 182 165 121 88 q 308 358 243 243 l 390 671 l 472 619 l 311 53 l 319 54 q 376 92 343 60 q 443 183 408 124 l 447 183 q 393 72 422 121 q 353 16 369 32 q 317 0 336 0 l 296 0 l 229 54 l 288 276 l 251 210 q 150 63 204 125 q 74 0 96 0 l 54 0 m 363 740 l 340 692 q 286 769 310 729 q 232 692 264 729 l 210 740 l 272 828 q 275 832 272 829 l 276 833 l 282 836 q 294 833 292 839 l 297 831 l 299 828 l 363 740 z "},"ü":{"ha":435,"x_min":-14,"x_max":472,"o":"m 54 0 l -14 54 l 147 671 l 229 619 l 68 53 l 76 54 q 182 165 121 88 q 308 358 243 243 l 390 671 l 472 619 l 311 53 l 319 54 q 376 92 343 60 q 443 183 408 124 l 447 183 q 393 72 422 121 q 353 16 369 32 q 317 0 336 0 l 296 0 l 229 54 l 288 276 l 251 210 q 150 63 204 125 q 74 0 96 0 l 54 0 m 293 763 l 308 715 l 240 715 l 226 763 l 293 763 m 393 763 l 408 715 l 339 715 l 325 763 l 393 763 z "},"ù":{"ha":435,"x_min":-14,"x_max":472,"o":"m 54 0 l -14 54 l 147 671 l 229 619 l 68 53 l 76 54 q 182 165 121 88 q 308 358 243 243 l 390 671 l 472 619 l 311 53 l 319 54 q 376 92 343 60 q 443 183 408 124 l 447 183 q 393 72 422 121 q 353 16 369 32 q 317 0 336 0 l 296 0 l 229 54 l 288 276 l 251 210 q 150 63 204 125 q 74 0 96 0 l 54 0 m 254 810 l 289 849 q 319 749 306 797 l 322 726 q 301 694 322 694 q 289 701 292 694 l 254 810 z "},"ẃ":{"ha":521,"x_min":-14,"x_max":639,"o":"m 308 0 l 264 0 l 196 54 l 240 256 l 238 251 l 221 221 q 124 54 158 108 q 74 0 90 0 l 54 0 l -14 54 l 147 671 l 229 619 l 68 53 l 76 54 q 257 333 151 151 l 329 671 l 400 619 l 278 61 l 569 671 l 639 619 l 308 0 m 396 710 q 381 710 390 706 q 371 726 371 714 q 392 765 371 743 q 465 840 426 803 l 478 789 l 396 710 z "},"ŵ":{"ha":521,"x_min":-14,"x_max":639,"o":"m 308 0 l 264 0 l 196 54 l 240 256 l 238 251 l 221 221 q 124 54 158 108 q 74 0 90 0 l 54 0 l -14 54 l 147 671 l 229 619 l 68 53 l 76 54 q 257 333 151 151 l 329 671 l 400 619 l 278 61 l 569 671 l 639 619 l 308 0 m 431 729 l 408 681 q 354 758 378 718 q 300 681 332 718 l 278 729 l 340 817 q 343 821 340 818 l 344 822 l 350 825 q 363 822 360 828 l 365 819 l 367 817 l 431 729 z "},"ẅ":{"ha":521,"x_min":-14,"x_max":639,"o":"m 308 0 l 264 0 l 196 54 l 240 256 l 238 251 l 221 221 q 124 54 158 108 q 74 0 90 0 l 54 0 l -14 54 l 147 671 l 229 619 l 68 53 l 76 54 q 257 333 151 151 l 329 671 l 400 619 l 278 61 l 569 671 l 639 619 l 308 0 m 329 742 l 344 694 l 276 694 l 263 742 l 329 742 m 429 742 l 444 694 l 375 694 l 361 742 l 429 742 z "},"ẁ":{"ha":521,"x_min":-14,"x_max":639,"o":"m 308 0 l 264 0 l 196 54 l 240 256 l 238 251 l 221 221 q 124 54 158 108 q 74 0 90 0 l 54 0 l -14 54 l 147 671 l 229 619 l 68 53 l 76 54 q 257 333 151 151 l 329 671 l 400 619 l 278 61 l 569 671 l 639 619 l 308 0 m 335 808 l 369 847 q 400 747 386 796 l 403 725 q 382 693 403 693 q 369 700 372 693 l 335 808 z "},"ý":{"ha":389,"x_min":-62,"x_max":450,"o":"m 57 -208 q -26 -172 4 -203 q -62 -100 -56 -140 l 13 -60 q 44 -140 15 -104 q 107 -167 65 -167 q 136 -125 122 -147 l 263 268 q 232 210 239 222 q 131 63 185 125 q 54 0 76 0 l 35 0 l -33 54 l 128 671 l 210 619 l 49 53 l 57 54 q 166 170 103 89 q 297 372 229 251 l 393 671 l 450 619 l 222 -135 l 57 -207 l 57 -208 m 290 688 q 275 688 285 683 q 265 704 265 692 q 286 743 265 721 q 360 818 321 781 l 372 767 l 290 688 z "},"ŷ":{"ha":389,"x_min":-62,"x_max":450,"o":"m 57 -208 q -26 -172 4 -203 q -62 -100 -56 -140 l 13 -60 q 44 -140 15 -104 q 107 -167 65 -167 q 136 -125 122 -147 l 263 268 q 232 210 239 222 q 131 63 185 125 q 54 0 76 0 l 35 0 l -33 54 l 128 671 l 210 619 l 49 53 l 57 54 q 166 170 103 89 q 297 372 229 251 l 393 671 l 450 619 l 222 -135 l 57 -207 l 57 -208 m 363 736 l 340 688 q 286 765 310 725 q 232 688 264 725 l 210 736 l 272 824 q 275 828 272 825 l 276 829 l 282 832 q 294 829 292 835 l 297 826 l 299 824 l 363 736 z "},"ÿ":{"ha":389,"x_min":-62,"x_max":450,"o":"m 57 -208 q -26 -172 4 -203 q -62 -100 -56 -140 l 13 -60 q 44 -140 15 -104 q 107 -167 65 -167 q 136 -125 122 -147 l 263 268 q 232 210 239 222 q 131 63 185 125 q 54 0 76 0 l 35 0 l -33 54 l 128 671 l 210 619 l 49 53 l 57 54 q 166 170 103 89 q 297 372 229 251 l 393 671 l 450 619 l 222 -135 l 57 -207 l 57 -208 m 258 746 l 274 699 l 206 699 l 192 746 l 258 746 m 358 746 l 374 699 l 304 699 l 290 746 l 358 746 z "},"ỳ":{"ha":389,"x_min":-62,"x_max":450,"o":"m 57 -208 q -26 -172 4 -203 q -62 -100 -56 -140 l 13 -60 q 44 -140 15 -104 q 107 -167 65 -167 q 136 -125 122 -147 l 263 268 q 232 210 239 222 q 131 63 185 125 q 54 0 76 0 l 35 0 l -33 54 l 128 671 l 210 619 l 49 53 l 57 54 q 166 170 103 89 q 297 372 229 251 l 393 671 l 450 619 l 222 -135 l 57 -207 l 57 -208 m 249 785 l 283 824 q 314 724 300 772 l 317 701 q 296 669 317 669 q 283 676 286 669 l 249 785 z "},".":{"ha":181,"x_min":10,"x_max":140,"o":"m 117 0 l 140 -58 l 32 -58 l 10 0 l 117 0 z "},",":{"ha":151,"x_min":-18,"x_max":104,"o":"m 38 -83 q -2 -62 14 -74 q -18 -37 -18 -50 q -12 -24 -18 -29 l 42 40 l 104 15 l 46 -53 q 38 -83 35 -65 z "},":":{"ha":181,"x_min":10,"x_max":140,"o":"m 117 372 l 140 314 l 32 314 l 10 372 l 117 372 m 117 0 l 140 -58 l 32 -58 l 10 0 l 117 0 z "},";":{"ha":181,"x_min":-18,"x_max":140,"o":"m 117 353 l 140 294 l 32 294 l 10 353 l 117 353 m 38 -83 q -2 -62 14 -74 q -18 -37 -18 -50 q -12 -24 -18 -29 l 42 40 l 104 15 l 46 -53 q 38 -83 35 -65 z "},"…":{"ha":435,"x_min":-18,"x_max":393,"o":"m 89 0 l 113 -58 l 4 -58 l -18 0 l 89 0 m 369 0 l 393 -58 l 285 -58 l 263 0 l 369 0 m 231 0 l 254 -58 l 146 -58 l 124 0 l 231 0 z "},"!":{"ha":250,"x_min":-14,"x_max":361,"o":"m 274 872 l 361 801 l 85 90 l 40 144 l 274 872 m 110 65 l 136 -1 l 11 -1 l -14 65 l 110 65 z "},"¡":{"ha":250,"x_min":14,"x_max":389,"o":"m 364 872 l 389 806 l 265 806 l 239 872 l 364 872 m 290 781 l 335 726 l 101 -1 l 14 69 l 290 781 z "},"?":{"ha":403,"x_min":97,"x_max":531,"o":"m 225 93 q 201 90 208 90 q 125 119 160 90 l 104 189 q 156 333 118 247 q 253 517 193 419 q 444 814 399 753 q 411 824 428 824 q 355 795 383 824 q 304 707 326 767 q 256 613 285 653 q 197 553 226 574 l 132 606 q 174 658 156 625 q 226 765 193 692 q 294 842 247 810 q 389 875 340 875 q 458 853 428 875 q 514 796 497 825 q 526 744 531 767 q 292 359 389 524 q 193 172 196 194 q 200 129 190 150 q 225 93 210 108 m 221 65 l 247 -1 l 122 -1 l 97 65 l 221 65 z "},"¿":{"ha":431,"x_min":11,"x_max":444,"o":"m 418 875 l 444 807 l 321 807 l 294 875 l 418 875 m 82 19 q 27 76 43 47 q 15 128 11 106 q 249 513 153 349 q 349 700 346 678 q 342 743 351 722 q 317 779 332 764 q 342 782 325 782 q 417 754 382 782 l 438 683 q 386 540 424 625 q 289 357 349 454 q 97 58 143 119 q 131 49 114 49 q 187 77 158 49 q 238 165 215 106 q 286 259 257 219 q 344 319 315 299 l 410 267 q 366 213 385 247 q 315 107 347 179 q 247 31 294 63 q 151 -1 200 -1 q 82 19 110 -1 z "},"·":{"ha":228,"x_min":47,"x_max":200,"o":"m 172 424 l 200 333 l 74 333 l 47 424 l 172 424 z "},"•":{"ha":246,"x_min":28,"x_max":218,"o":"m 183 408 l 218 296 l 61 296 l 28 408 l 183 408 z "},"*":{"ha":269,"x_min":135,"x_max":326,"o":"m 242 899 l 244 829 l 211 839 l 210 874 q 188 851 188 851 q 179 846 183 846 q 154 872 168 846 q 168 879 161 872 l 192 903 l 147 901 q 135 918 135 901 q 139 940 135 928 q 153 935 144 935 l 200 938 l 149 985 l 179 1001 q 207 978 192 990 q 206 1008 206 992 q 222 1021 206 1021 q 244 1017 232 1021 q 238 1003 238 1013 l 239 954 l 288 1006 l 303 975 l 271 939 l 326 940 l 317 908 l 282 907 q 304 885 304 885 q 310 876 310 881 q 283 851 310 865 q 276 865 283 861 l 242 899 z "},"#":{"ha":675,"x_min":74,"x_max":686,"o":"m 217 0 l 149 47 l 196 240 l 131 224 l 74 299 q 214 313 136 308 l 231 379 l 179 372 l 132 453 q 249 451 210 453 l 325 764 l 401 701 l 335 446 q 482 428 432 436 l 565 764 l 640 701 l 565 414 q 678 392 631 401 l 686 376 q 560 390 628 388 l 539 313 l 624 306 l 633 292 q 583 293 617 293 q 533 292 550 293 l 457 0 l 389 47 l 447 285 q 285 260 375 278 l 217 0 m 300 317 q 382 318 329 318 q 454 317 432 318 l 474 393 q 319 388 408 393 l 300 317 z "},"/":{"ha":240,"x_min":-14,"x_max":338,"o":"m 250 872 l 338 801 l 31 -1 l -14 53 l 250 872 z "},"\\":{"ha":407,"x_min":104,"x_max":375,"o":"m 199 875 l 375 33 l 325 -17 l 104 814 l 199 875 z "},"(":{"ha":404,"x_min":69,"x_max":515,"o":"m 207 0 q 125 63 164 25 q 69 146 86 101 q 199 496 110 303 q 421 867 289 689 l 515 811 q 318 474 407 639 q 199 214 229 310 q 183 125 183 167 q 211 38 183 69 q 278 0 239 7 l 207 0 z "},")":{"ha":543,"x_min":28,"x_max":474,"o":"m 265 0 q 332 38 304 7 q 360 125 360 69 q 344 214 360 167 q 225 474 314 310 q 28 811 136 639 l 122 867 q 344 496 254 689 q 474 146 433 303 q 418 63 457 101 q 336 0 379 25 l 265 0 z "},"{":{"ha":392,"x_min":64,"x_max":404,"o":"m 226 -274 q 168 35 200 -118 q 81 289 142 163 q 64 326 68 314 q 81 364 68 339 q 168 618 142 490 q 226 926 200 771 l 404 776 q 390 769 400 774 q 369 760 381 764 q 342 753 358 757 q 299 762 322 747 q 257 800 276 776 q 226 528 249 658 q 195 408 215 460 q 154 326 175 356 q 195 245 175 297 q 226 125 215 193 q 257 -147 249 -6 q 299 -109 276 -124 q 342 -100 322 -94 q 374 -110 363 -106 q 392 -117 385 -114 q 404 -124 400 -121 l 226 -274 z "},"}":{"ha":517,"x_min":113,"x_max":453,"o":"m 113 -124 q 126 -116 117 -121 q 147 -108 136 -111 q 175 -100 158 -104 q 217 -109 194 -94 q 260 -147 240 -124 q 290 125 268 -6 q 322 245 301 193 q 363 326 342 297 q 322 408 342 356 q 290 528 301 460 q 260 800 268 658 q 217 762 240 776 q 175 753 194 747 q 143 763 154 758 q 124 770 132 767 q 113 776 117 774 l 290 926 q 349 618 317 771 q 436 364 375 490 q 453 326 449 339 q 436 289 449 314 q 349 35 375 163 q 290 -274 317 -118 l 113 -124 z "},"[":{"ha":403,"x_min":-14,"x_max":415,"o":"m 303 43 l 89 -154 l -14 25 l 171 725 l 219 797 l 415 797 l 361 735 l 257 704 q 126 286 176 472 q 63 -12 76 99 l 303 43 z "},"]":{"ha":542,"x_min":71,"x_max":500,"o":"m 500 25 l 397 -154 l 183 43 l 424 -12 q 360 286 410 99 q 229 704 310 472 l 125 735 l 71 797 l 267 797 l 315 725 l 500 25 z "},"-":{"ha":338,"x_min":42,"x_max":338,"o":"m 56 344 q 42 414 42 383 q 75 457 42 457 l 306 457 l 338 364 l 97 364 q 56 344 72 364 z "},"–":{"ha":492,"x_min":53,"x_max":500,"o":"m 67 351 q 53 421 53 390 q 86 464 53 464 l 468 464 l 500 371 l 108 371 q 67 351 83 371 z "},"—":{"ha":528,"x_min":14,"x_max":542,"o":"m 28 361 q 14 429 14 400 q 47 472 14 472 l 510 472 l 542 379 l 69 379 q 28 361 46 379 z "},"_":{"ha":344,"x_min":19,"x_max":303,"o":"m 28 -19 q 19 17 19 1 q 40 40 19 40 l 282 40 l 303 -10 l 54 -10 q 28 -19 38 -10 z "},"‚":{"ha":151,"x_min":-18,"x_max":104,"o":"m 38 -83 q -2 -62 14 -74 q -18 -37 -18 -50 q -12 -24 -18 -29 l 42 40 l 104 15 l 46 -53 q 38 -83 35 -65 z "},"„":{"ha":314,"x_min":10,"x_max":267,"o":"m 65 -72 q 26 -51 42 -62 q 10 -26 10 -39 q 15 -12 10 -18 l 69 51 l 132 26 l 74 -42 q 65 -72 63 -54 m 200 -83 q 160 -62 176 -74 q 144 -37 144 -50 q 150 -24 144 -29 l 204 40 l 267 15 l 208 -53 q 200 -83 197 -65 z "},"“":{"ha":322,"x_min":100,"x_max":313,"o":"m 143 843 q 100 888 100 867 q 107 901 100 896 l 161 951 l 213 922 l 156 868 q 143 843 143 856 m 242 843 q 199 888 199 867 q 206 901 199 896 l 260 951 l 313 922 l 253 868 q 242 843 242 860 z "},"”":{"ha":322,"x_min":161,"x_max":363,"o":"m 228 843 q 217 867 228 858 l 161 918 l 211 946 l 263 899 q 269 885 269 892 q 228 843 269 865 m 321 843 q 310 867 321 856 l 256 918 l 304 946 l 356 899 q 363 885 363 892 q 321 843 363 865 z "},"‘":{"ha":285,"x_min":192,"x_max":310,"o":"m 238 818 q 192 864 192 843 q 199 878 192 871 l 256 929 l 310 899 l 249 844 q 238 818 238 831 z "},"’":{"ha":313,"x_min":206,"x_max":329,"o":"m 281 811 q 269 836 281 831 l 206 896 l 263 928 q 321 874 294 901 q 329 858 329 865 q 315 834 329 847 q 281 811 301 821 z "},"«":{"ha":604,"x_min":40,"x_max":714,"o":"m 243 40 l 165 64 q 76 186 113 115 q 42 331 40 257 q 207 515 96 381 q 474 863 318 649 l 549 794 q 349 547 438 644 q 131 317 260 451 q 216 141 158 226 q 353 8 274 56 l 243 40 m 332 64 q 243 186 279 115 q 208 331 207 257 q 374 515 263 381 q 640 863 485 649 l 714 794 q 515 547 604 644 q 297 317 426 451 q 382 141 325 226 q 519 8 439 56 l 332 64 z "},"»":{"ha":743,"x_min":83,"x_max":757,"o":"m 278 8 q 415 141 358 56 q 500 317 472 226 q 282 547 371 451 q 83 794 193 644 l 157 863 q 424 515 313 649 q 589 331 535 381 q 554 186 590 257 q 465 64 518 115 l 278 8 m 444 8 q 582 141 525 56 q 667 317 639 226 q 449 547 538 451 q 250 794 360 644 l 324 863 q 590 515 479 649 q 756 331 701 381 q 721 186 757 257 q 632 64 685 115 l 444 8 z "},"‹":{"ha":465,"x_min":40,"x_max":549,"o":"m 243 40 l 165 64 q 76 186 113 115 q 42 331 40 257 q 207 515 96 381 q 474 863 318 649 l 549 794 q 349 547 438 644 q 131 317 260 451 q 216 141 158 226 q 353 8 274 56 l 243 40 z "},"›":{"ha":646,"x_min":97,"x_max":606,"o":"m 293 8 q 430 141 372 56 q 515 317 488 226 q 297 547 386 451 q 97 794 208 644 l 172 863 q 439 515 328 649 q 604 331 550 381 q 569 186 606 257 q 481 64 533 115 l 403 40 l 293 8 z "},"\"":{"ha":279,"x_min":204,"x_max":351,"o":"m 351 874 q 315 868 332 868 q 285 892 285 868 l 289 964 l 347 979 l 342 900 q 351 874 342 883 m 271 868 q 235 863 251 863 q 204 886 204 863 l 208 958 l 267 972 l 263 894 q 271 868 263 876 z "},"'":{"ha":324,"x_min":243,"x_max":310,"o":"m 310 878 q 274 872 290 872 q 243 896 243 872 l 247 968 l 306 982 l 301 904 q 310 878 301 886 z "},"¢":{"ha":425,"x_min":-14,"x_max":439,"o":"m 82 0 m 344 671 l 415 671 l 439 596 l 371 506 q 357 575 357 526 q 361 626 357 601 l 257 604 q 126 310 176 442 q 63 100 76 178 l 303 139 l 122 22 q 86 -26 107 -3 q 49 -60 65 -50 l 65 29 l -14 126 l 171 619 l 219 671 l 275 671 q 317 726 289 694 q 367 769 344 758 l 344 671 z "},"$":{"ha":365,"x_min":-14,"x_max":378,"o":"m 94 0 l 82 0 l -14 54 l 13 253 l 107 282 l 81 125 q 79 110 79 119 q 99 50 79 78 l 119 22 q 183 71 161 26 q 206 175 206 115 q 192 230 206 197 q 150 315 178 263 q 100 423 117 382 q 83 497 83 464 q 85 515 83 510 q 130 599 94 558 q 210 671 165 640 l 243 671 q 325 765 286 744 l 307 671 l 319 671 l 378 619 l 356 471 l 278 511 l 296 636 q 235 599 264 628 q 192 525 206 571 q 186 486 186 508 q 201 414 186 449 q 246 332 217 379 q 276 275 268 294 q 301 163 301 219 q 257 54 301 93 q 167 10 225 25 q 75 -103 124 -76 l 94 0 z "},"¥":{"ha":533,"x_min":128,"x_max":689,"o":"m 213 -33 l 186 21 l 217 147 q 161 119 183 133 l 128 204 q 235 224 178 219 l 246 271 q 203 249 221 258 l 171 333 q 261 351 214 347 q 267 396 267 378 q 243 577 267 464 q 168 776 219 690 l 275 747 q 326 611 304 685 q 351 474 349 538 q 464 703 401 603 q 528 785 496 754 q 585 825 560 815 l 689 825 q 556 692 624 776 q 439 501 488 608 q 381 356 411 440 q 485 342 440 351 l 490 326 q 463 328 481 328 q 367 314 418 328 q 340 225 360 293 q 443 213 399 222 l 449 197 q 421 199 439 199 q 328 186 383 199 q 275 -33 296 69 l 213 -33 z "},">":{"ha":479,"x_min":129,"x_max":394,"o":"m 129 653 l 161 694 l 382 407 l 394 392 l 163 90 l 131 132 l 353 393 l 129 653 z "},"<":{"ha":479,"x_min":85,"x_max":350,"o":"m 97 407 l 318 694 l 350 653 l 126 393 l 349 132 l 317 90 l 85 392 l 97 407 z "},"%":{"ha":485,"x_min":97,"x_max":499,"o":"m 408 858 l 494 788 l 189 -15 l 143 39 l 408 858 m 167 476 q 99 519 143 476 l 97 540 q 122 647 97 588 q 160 714 139 688 q 201 750 182 740 q 247 731 224 747 q 286 694 269 715 q 251 579 271 618 q 167 476 196 476 m 150 497 q 201 563 179 517 q 219 622 214 586 q 224 694 224 658 q 175 601 203 660 q 150 497 149 542 m 378 15 q 311 58 354 15 l 310 76 q 335 186 310 125 q 373 253 351 226 q 414 289 394 279 q 459 270 436 286 q 499 233 482 254 q 464 118 483 157 q 419 47 443 78 q 378 15 396 15 m 363 36 q 415 101 392 56 q 436 233 438 149 q 389 140 415 199 q 363 36 361 82 z "},"@":{"ha":697,"x_min":26,"x_max":751,"o":"m 340 -103 l 311 -104 q 145 -67 228 -104 q 38 76 63 -29 q 26 175 26 124 q 66 409 26 283 q 174 638 106 535 q 324 785 242 742 q 481 824 396 824 q 613 797 550 824 q 714 728 676 771 q 751 643 751 686 q 706 428 751 578 q 590 157 661 279 q 440 22 519 35 l 365 65 q 363 99 363 75 q 368 176 363 128 q 251 22 300 22 l 163 76 q 183 217 165 132 q 232 404 200 303 q 303 580 264 506 q 375 693 342 654 l 488 658 q 499 572 499 628 q 550 649 525 617 q 592 693 575 681 l 649 642 q 574 544 613 606 q 510 406 536 482 q 455 192 472 299 q 443 43 438 85 q 511 115 472 63 q 589 249 550 167 q 654 430 632 338 q 676 596 676 522 q 668 668 676 642 q 642 728 658 706 q 608 760 625 751 q 546 764 582 764 q 331 693 404 764 q 200 499 257 621 q 118 238 143 376 q 113 179 113 211 q 138 58 113 114 q 213 -33 164 1 q 325 -67 261 -67 q 436 -43 379 -67 l 340 -103 m 251 63 q 299 115 276 75 q 382 283 317 146 q 457 499 399 383 q 452 578 458 540 q 435 642 446 615 q 375 533 408 611 q 307 336 342 456 q 251 63 254 158 z "},"&":{"ha":507,"x_min":-14,"x_max":521,"o":"m 51 65 q 2 142 18 97 q -14 236 -14 186 q -4 310 -14 275 q 21 367 6 346 q 124 411 54 411 q 92 599 92 510 q 94 651 92 615 q 167 813 104 743 q 313 897 229 883 q 375 903 342 903 q 521 878 454 903 q 451 758 489 817 q 424 647 424 713 l 425 619 q 359 633 386 618 q 332 682 332 647 q 333 699 332 693 q 396 878 349 782 q 312 853 354 875 q 240 790 269 832 q 196 622 196 725 q 231 408 196 526 q 296 246 256 321 q 372 122 336 171 q 383 183 383 151 q 363 271 383 226 q 311 350 342 315 q 280 410 293 378 q 267 468 267 442 q 351 426 306 443 q 439 408 397 408 q 494 419 465 408 q 478 370 493 392 q 435 344 464 349 q 457 226 457 290 q 413 83 457 144 q 334 21 382 42 q 231 0 286 0 q 131 17 179 0 q 51 65 83 35 m 322 65 q 193 257 254 149 q 132 386 156 324 q 85 349 110 386 q 61 258 61 314 q 91 144 61 197 q 181 69 121 90 q 264 51 225 51 q 322 65 294 51 z "},"©":{"ha":511,"x_min":-14,"x_max":525,"o":"m 104 54 l 22 110 q -3 157 7 126 q -14 226 -14 188 q 43 426 -14 314 q 176 597 99 536 q 326 671 253 657 l 496 619 q 517 583 508 606 q 525 531 525 560 q 511 458 525 499 q 465 366 493 407 q 410 301 438 325 l 411 282 q 364 153 411 221 q 292 86 333 111 q 214 54 251 61 l 104 54 m 158 69 q 220 83 188 69 q 279 122 253 96 q 321 180 306 150 q 340 235 336 210 q 256 213 292 206 q 344 292 301 239 q 408 419 386 346 q 422 506 422 467 q 408 576 422 547 q 372 619 393 606 q 267 583 326 621 q 150 461 208 544 q 72 224 72 349 q 85 132 72 171 l 158 69 m 132 197 l 131 217 q 176 382 131 285 q 238 476 206 442 q 299 519 271 510 l 325 496 l 311 386 l 279 421 l 286 469 q 253 436 274 467 q 207 344 233 406 q 187 282 194 314 q 179 228 179 250 q 192 201 179 197 q 246 244 210 210 l 251 244 q 208 188 229 206 q 165 171 188 171 l 132 197 z "},"®":{"ha":511,"x_min":-14,"x_max":525,"o":"m 104 54 l 22 110 q -3 157 7 126 q -14 226 -14 188 q 43 426 -14 314 q 176 597 99 536 q 326 671 253 657 l 496 619 q 517 583 508 606 q 525 531 525 560 q 511 458 525 499 q 465 366 493 407 q 410 301 438 325 l 411 282 q 364 153 411 221 q 292 86 333 111 q 214 54 251 61 l 104 54 m 158 69 q 220 83 188 69 q 279 122 253 96 q 321 180 306 150 q 340 235 336 210 q 256 213 292 206 q 344 292 301 239 q 408 419 386 346 q 422 506 422 467 q 408 576 422 547 q 372 619 393 606 q 267 583 326 621 q 150 461 208 544 q 72 224 72 349 q 85 132 72 171 l 158 69 m 182 171 l 174 171 l 150 197 l 225 476 q 189 456 199 460 l 172 476 q 226 511 203 492 q 257 519 242 519 q 288 506 274 519 q 313 475 303 493 q 293 349 317 424 q 256 257 269 272 q 225 238 240 243 q 236 213 228 222 q 256 203 244 204 l 236 175 q 214 199 221 179 q 207 235 207 218 q 200 243 207 235 l 182 171 m 213 253 q 240 297 225 265 q 268 376 256 328 q 288 482 288 458 q 281 503 288 496 q 276 504 279 504 q 247 492 269 504 l 263 483 l 204 258 q 213 253 210 253 z "},"™":{"ha":421,"x_min":138,"x_max":449,"o":"m 432 950 l 438 946 l 449 935 l 374 667 l 360 690 l 424 926 l 299 667 l 285 690 l 347 926 l 226 667 l 211 690 l 276 932 q 214 894 253 908 l 151 671 l 138 694 l 194 904 l 189 911 q 197 914 192 911 l 204 940 l 153 940 l 165 960 l 210 960 l 211 967 l 215 960 l 271 960 l 272 961 l 274 960 l 319 960 l 311 940 l 296 940 l 301 935 l 253 763 l 344 961 l 354 953 l 374 935 l 324 760 l 419 961 l 429 953 l 432 950 m 222 925 q 247 940 235 931 l 226 940 l 226 939 l 222 925 z "},"†":{"ha":522,"x_min":-14,"x_max":536,"o":"m 536 578 l 314 578 l 161 -4 l 83 50 l 213 578 l 21 578 l -14 671 l 236 671 l 285 869 l 372 799 l 338 671 l 499 671 l 536 578 z "},"̈":{"ha":0,"x_min":-607,"x_max":-425,"o":"m -540 763 l -525 715 l -593 715 l -607 763 l -540 763 m -440 763 l -425 715 l -494 715 l -508 763 l -440 763 z "},"̇":{"ha":0,"x_min":-521,"x_max":-390,"o":"m -414 788 l -390 729 l -499 729 l -521 788 l -414 788 z "},"̀":{"ha":0,"x_min":-499,"x_max":-431,"o":"m -499 838 l -464 876 q -433 776 -447 825 l -431 754 q -451 722 -431 722 q -464 729 -461 722 l -499 838 z "},"́":{"ha":0,"x_min":-432,"x_max":-325,"o":"m -407 896 q -422 896 -412 892 q -432 913 -432 900 q -411 951 -432 929 q -337 1026 -376 989 l -325 975 l -407 896 z "},"̂":{"ha":0,"x_min":-462,"x_max":-310,"o":"m -310 808 l -332 760 q -386 838 -362 797 q -440 760 -408 797 l -462 808 l -400 896 q -397 900 -400 897 l -396 901 l -390 904 q -378 901 -381 907 l -375 899 l -374 896 l -310 808 z "},"̊":{"ha":0,"x_min":-479,"x_max":-365,"o":"m -369 747 q -392 722 -378 731 q -422 714 -406 714 q -462 728 -446 714 q -479 768 -479 743 q -462 807 -479 797 q -431 817 -446 817 q -382 803 -399 817 q -365 768 -365 789 q -369 747 -365 758 m -397 764 q -401 786 -394 775 q -422 797 -408 797 q -436 794 -431 797 q -454 769 -454 786 q -444 744 -454 756 q -422 733 -433 733 q -397 764 -403 733 z "},"̃":{"ha":0,"x_min":-536,"x_max":-324,"o":"m -521 733 q -524 731 -522 731 q -532 741 -528 731 q -533 756 -536 751 q -508 788 -526 774 q -471 803 -490 803 q -450 797 -460 803 q -376 774 -408 774 q -332 790 -351 774 l -329 792 q -324 781 -328 792 l -324 775 l -324 774 q -327 768 -324 771 q -332 764 -331 765 q -356 747 -346 753 q -378 742 -365 742 q -428 757 -399 742 q -460 763 -439 763 q -499 755 -482 763 q -521 733 -517 747 z "}}}
